G75*
%MOIN*%
%OFA0B0*%
%FSLAX25Y25*%
%IPPOS*%
%LPD*%
%AMOC8*
5,1,8,0,0,1.08239X$1,22.5*
%
%ADD10R,0.05150X0.05150*%
%ADD11R,0.07874X0.08661*%
%ADD12R,0.08661X0.07874*%
%ADD13R,0.05906X0.01600*%
%ADD14C,0.05200*%
%ADD15C,0.05543*%
%ADD16R,0.13843X0.13843*%
%ADD17R,0.05937X0.05937*%
%ADD18R,0.08661X0.19685*%
%ADD19R,0.01969X0.03937*%
%ADD20R,0.03346X0.06890*%
%ADD21R,0.02953X0.06890*%
%ADD22C,0.01969*%
%ADD23C,0.01000*%
%ADD24C,0.04000*%
%ADD25C,0.01200*%
%ADD26C,0.02400*%
%ADD27C,0.05000*%
%ADD28C,0.04000*%
%ADD29R,0.04356X0.04356*%
%ADD30C,0.01575*%
D10*
X0278297Y0090147D03*
X0288297Y0090147D03*
X0305111Y0101364D03*
X0315111Y0101364D03*
X0325111Y0101364D03*
X0335111Y0101364D03*
X0345111Y0101364D03*
X0355111Y0101364D03*
X0355111Y0161364D03*
X0345111Y0161364D03*
X0335111Y0161364D03*
X0325111Y0161364D03*
X0315111Y0161364D03*
X0305111Y0161364D03*
X0153820Y0161070D03*
X0143820Y0161070D03*
X0133820Y0161070D03*
X0123820Y0161070D03*
X0113820Y0161070D03*
X0103820Y0161070D03*
X0103820Y0101070D03*
X0113820Y0101070D03*
X0123820Y0101070D03*
X0133820Y0101070D03*
X0143820Y0101070D03*
X0153820Y0101070D03*
D11*
X0169321Y0110619D03*
X0197077Y0111997D03*
X0169321Y0124202D03*
X0197077Y0125580D03*
X0252982Y0126958D03*
X0252982Y0113375D03*
X0290384Y0111997D03*
X0316959Y0112588D03*
X0316959Y0126171D03*
X0290384Y0125580D03*
X0355148Y0127352D03*
X0355148Y0140934D03*
X0177392Y0077745D03*
X0161053Y0078336D03*
X0161053Y0064753D03*
X0177392Y0064163D03*
X0145305Y0059832D03*
X0128770Y0058848D03*
X0145305Y0046249D03*
X0128770Y0045265D03*
X0161250Y0050186D03*
X0177392Y0049596D03*
X0177392Y0036013D03*
X0161250Y0036604D03*
X0094518Y0048808D03*
X0080935Y0048612D03*
X0081526Y0036407D03*
X0081526Y0022824D03*
X0040778Y0044871D03*
X0040778Y0058454D03*
X0080935Y0062194D03*
X0094518Y0062391D03*
X0076604Y0081682D03*
X0065187Y0081289D03*
X0042746Y0090147D03*
X0065187Y0094871D03*
X0076604Y0095265D03*
X0042746Y0103730D03*
X0044124Y0129320D03*
X0044124Y0142903D03*
X0107313Y0143887D03*
X0107313Y0130304D03*
X0141171Y0130108D03*
X0141171Y0116525D03*
D12*
X0122077Y0114950D03*
X0108494Y0114950D03*
X0071486Y0110816D03*
X0057904Y0110816D03*
X0106722Y0086604D03*
X0120305Y0086604D03*
X0132313Y0086801D03*
X0145896Y0086801D03*
X0184675Y0018297D03*
X0198258Y0018297D03*
X0213219Y0018100D03*
X0226801Y0018100D03*
X0249833Y0017706D03*
X0263415Y0017706D03*
X0279951Y0017509D03*
X0293533Y0017509D03*
X0311644Y0017706D03*
X0325226Y0017706D03*
X0338809Y0017509D03*
X0352392Y0017509D03*
X0355935Y0034832D03*
X0342352Y0034832D03*
X0339203Y0084241D03*
X0352785Y0084241D03*
X0052392Y0157470D03*
X0038809Y0157470D03*
D13*
X0055274Y0141417D03*
X0055274Y0138917D03*
X0055274Y0136417D03*
X0055274Y0133917D03*
X0055274Y0131417D03*
X0055274Y0128917D03*
X0055274Y0126417D03*
X0055274Y0123917D03*
X0079037Y0123917D03*
X0079037Y0126417D03*
X0079037Y0128917D03*
X0079037Y0131417D03*
X0079037Y0133917D03*
X0079037Y0136417D03*
X0079037Y0138917D03*
X0079037Y0141417D03*
D14*
X0197825Y0080975D02*
X0197825Y0075775D01*
X0207825Y0075775D02*
X0207825Y0080975D01*
X0217825Y0080975D02*
X0217825Y0075775D01*
X0227825Y0075775D02*
X0227825Y0080975D01*
X0237825Y0080975D02*
X0237825Y0075775D01*
X0247825Y0075775D02*
X0247825Y0080975D01*
X0257825Y0080975D02*
X0257825Y0075775D01*
X0267825Y0075775D02*
X0267825Y0080975D01*
X0277825Y0080975D02*
X0277825Y0075775D01*
X0287825Y0075775D02*
X0287825Y0080975D01*
X0297825Y0080975D02*
X0297825Y0075775D01*
X0307825Y0075775D02*
X0307825Y0080975D01*
X0317825Y0080975D02*
X0317825Y0075775D01*
X0327825Y0075775D02*
X0327825Y0080975D01*
X0327825Y0067196D02*
X0327825Y0061996D01*
X0317825Y0061996D02*
X0317825Y0067196D01*
X0307825Y0067196D02*
X0307825Y0061996D01*
X0297825Y0061996D02*
X0297825Y0067196D01*
X0287825Y0067196D02*
X0287825Y0061996D01*
X0277825Y0061996D02*
X0277825Y0067196D01*
X0267825Y0067196D02*
X0267825Y0061996D01*
X0257825Y0061996D02*
X0257825Y0067196D01*
X0247825Y0067196D02*
X0247825Y0061996D01*
X0237825Y0061996D02*
X0237825Y0067196D01*
X0227825Y0067196D02*
X0227825Y0061996D01*
X0217825Y0061996D02*
X0217825Y0067196D01*
X0207825Y0067196D02*
X0207825Y0061996D01*
X0197825Y0061996D02*
X0197825Y0067196D01*
X0197825Y0050975D02*
X0197825Y0045775D01*
X0207825Y0045775D02*
X0207825Y0050975D01*
X0217825Y0050975D02*
X0217825Y0045775D01*
X0227825Y0045775D02*
X0227825Y0050975D01*
X0237825Y0050975D02*
X0237825Y0045775D01*
X0247825Y0045775D02*
X0247825Y0050975D01*
X0257825Y0050975D02*
X0257825Y0045775D01*
X0267825Y0045775D02*
X0267825Y0050975D01*
X0277825Y0050975D02*
X0277825Y0045775D01*
X0287825Y0045775D02*
X0287825Y0050975D01*
X0297825Y0050975D02*
X0297825Y0045775D01*
X0307825Y0045775D02*
X0307825Y0050975D01*
X0317825Y0050975D02*
X0317825Y0045775D01*
X0327825Y0045775D02*
X0327825Y0050975D01*
X0327825Y0037196D02*
X0327825Y0031996D01*
X0317825Y0031996D02*
X0317825Y0037196D01*
X0307825Y0037196D02*
X0307825Y0031996D01*
X0297825Y0031996D02*
X0297825Y0037196D01*
X0287825Y0037196D02*
X0287825Y0031996D01*
X0277825Y0031996D02*
X0277825Y0037196D01*
X0267825Y0037196D02*
X0267825Y0031996D01*
X0257825Y0031996D02*
X0257825Y0037196D01*
X0247825Y0037196D02*
X0247825Y0031996D01*
X0237825Y0031996D02*
X0237825Y0037196D01*
X0227825Y0037196D02*
X0227825Y0031996D01*
X0217825Y0031996D02*
X0217825Y0037196D01*
X0207825Y0037196D02*
X0207825Y0031996D01*
X0197825Y0031996D02*
X0197825Y0037196D01*
D15*
X0355108Y0049438D03*
X0355108Y0059438D03*
X0355108Y0069438D03*
D16*
X0041565Y0074438D03*
X0041565Y0027037D03*
D17*
X0052234Y0045816D03*
X0060187Y0045797D03*
X0060167Y0055580D03*
X0052234Y0055659D03*
D18*
X0112549Y0021446D03*
X0127904Y0021446D03*
X0144045Y0021446D03*
D19*
X0071880Y0149989D03*
X0067943Y0149989D03*
X0069911Y0156682D03*
D20*
X0121132Y0144399D03*
X0128652Y0144360D03*
X0163848Y0149320D03*
X0171368Y0149281D03*
X0189833Y0149320D03*
X0197352Y0149281D03*
X0212864Y0150108D03*
X0220384Y0150068D03*
X0236289Y0151289D03*
X0243809Y0151249D03*
X0275266Y0149320D03*
X0282785Y0149281D03*
X0303022Y0147745D03*
X0310541Y0147706D03*
X0332746Y0140068D03*
X0340266Y0140029D03*
D21*
X0336447Y0129635D03*
X0306722Y0137312D03*
X0278967Y0138887D03*
X0239990Y0140856D03*
X0216565Y0139675D03*
X0193533Y0138887D03*
X0167549Y0138887D03*
X0124833Y0133966D03*
D22*
X0053573Y0034241D02*
X0069321Y0018493D01*
X0069321Y0014753D01*
X0069911Y0014163D01*
X0092156Y0014163D01*
X0094518Y0016525D01*
X0094518Y0016722D01*
X0100158Y0022362D01*
X0100158Y0024921D01*
X0102785Y0027549D01*
X0102785Y0061545D01*
X0107847Y0066607D01*
X0113068Y0066607D01*
X0113068Y0072871D01*
X0114400Y0074202D01*
X0114400Y0075777D01*
X0119518Y0080895D01*
X0119518Y0085816D01*
X0120305Y0086604D01*
X0120858Y0086436D02*
X0131658Y0086436D01*
X0118743Y0087941D02*
X0118743Y0103241D01*
X0118947Y0103241D01*
X0118947Y0107962D01*
X0121758Y0107962D01*
X0121758Y0112844D01*
X0122077Y0114950D02*
X0121880Y0115147D01*
X0121880Y0121446D01*
X0117549Y0125777D01*
X0116368Y0125777D01*
X0115187Y0126958D01*
X0115187Y0149005D01*
X0114990Y0152352D01*
X0125620Y0152352D01*
X0128058Y0148733D01*
X0128058Y0144036D01*
X0172158Y0149436D02*
X0180972Y0149436D01*
X0181132Y0149596D01*
X0181132Y0150580D01*
X0188022Y0157470D01*
X0197077Y0157470D01*
X0197077Y0156879D01*
X0197470Y0157273D01*
X0219911Y0157273D01*
X0224045Y0157273D01*
X0225423Y0158651D01*
X0243337Y0158651D01*
X0281722Y0158651D01*
X0281958Y0158415D01*
X0281958Y0154911D01*
X0282155Y0155108D01*
X0306919Y0155108D01*
X0308494Y0153533D01*
X0310463Y0153533D01*
X0310463Y0151367D01*
X0310541Y0147706D02*
X0311407Y0146840D01*
X0318730Y0146840D01*
X0339614Y0146820D02*
X0339558Y0143136D01*
X0281958Y0149436D02*
X0281958Y0154911D01*
X0243809Y0151249D02*
X0243337Y0151722D01*
X0243337Y0158651D01*
X0229557Y0140738D02*
X0220859Y0149436D01*
X0219858Y0150336D02*
X0219858Y0157219D01*
X0219911Y0157273D01*
X0197077Y0156879D02*
X0197077Y0149556D01*
X0197352Y0149281D01*
X0229557Y0140738D02*
X0229557Y0135619D01*
X0239596Y0124202D01*
X0239596Y0110226D01*
X0240384Y0109241D02*
X0257904Y0091722D01*
X0257904Y0078454D01*
X0210970Y0086914D02*
X0185939Y0086717D01*
X0177558Y0078336D01*
X0153342Y0056735D02*
X0153342Y0029157D01*
X0154557Y0027942D01*
X0170896Y0027942D01*
X0171683Y0028730D01*
X0171683Y0030304D01*
X0177392Y0036013D01*
X0185659Y0036013D01*
X0189989Y0031683D01*
X0189989Y0029567D01*
X0240600Y0018041D02*
X0246624Y0018060D01*
X0246722Y0018159D01*
X0249380Y0018159D01*
X0249833Y0017706D01*
X0251358Y0018129D02*
X0267825Y0034596D01*
X0260522Y0027214D02*
X0317116Y0027214D01*
X0317175Y0027155D02*
X0352138Y0027155D01*
X0352158Y0027135D01*
X0352158Y0018036D01*
X0352333Y0025364D02*
X0357530Y0025364D01*
X0352158Y0027135D02*
X0352158Y0027936D01*
X0349400Y0027135D02*
X0349400Y0044163D01*
X0349892Y0044281D02*
X0349892Y0056938D01*
X0351033Y0058080D01*
X0353750Y0058080D01*
X0355108Y0059438D01*
X0102785Y0061545D02*
X0102195Y0062136D01*
X0094758Y0062136D01*
X0094518Y0048808D02*
X0094518Y0026958D01*
X0094124Y0026564D01*
X0094124Y0025777D01*
X0091368Y0023021D01*
X0081722Y0023021D01*
X0081526Y0022824D01*
X0081329Y0022627D01*
X0075423Y0022627D01*
X0066565Y0031486D01*
X0063809Y0031486D01*
X0060187Y0035108D01*
X0060187Y0045797D01*
X0053573Y0036604D02*
X0033890Y0036604D01*
X0031758Y0038736D01*
X0031758Y0127190D01*
X0034478Y0129911D01*
X0034478Y0153533D01*
X0038809Y0153533D01*
X0034675Y0129636D02*
X0043458Y0129636D01*
X0053573Y0036604D02*
X0053573Y0034241D01*
D23*
X0049819Y0043297D02*
X0047077Y0043297D01*
X0045502Y0044871D01*
X0040778Y0044871D01*
X0038058Y0044136D01*
X0049819Y0043297D02*
X0051558Y0045036D01*
X0052234Y0045816D01*
X0052458Y0045936D01*
X0078558Y0050436D02*
X0080358Y0048636D01*
X0080935Y0048612D01*
X0081258Y0048636D01*
X0080935Y0048612D02*
X0081258Y0047736D01*
X0082158Y0046836D01*
X0081526Y0046204D01*
X0081526Y0036407D01*
X0082158Y0035136D01*
X0083058Y0024336D02*
X0083058Y0022536D01*
X0081526Y0022824D01*
X0083058Y0020736D01*
X0083058Y0022536D01*
X0112549Y0021446D02*
X0112758Y0021636D01*
X0112758Y0027036D01*
X0128058Y0042336D01*
X0128058Y0045036D01*
X0128770Y0045265D01*
X0128958Y0045936D01*
X0136158Y0053136D01*
X0136158Y0063936D01*
X0161358Y0089136D01*
X0161420Y0089136D01*
X0163022Y0090738D01*
X0215384Y0090738D01*
X0215541Y0090580D01*
X0216230Y0090580D01*
X0222470Y0084340D01*
X0222470Y0081748D01*
X0222538Y0081680D01*
X0222538Y0043880D01*
X0218058Y0039636D01*
X0218058Y0035136D01*
X0217825Y0034596D01*
X0227058Y0034236D02*
X0227058Y0032436D01*
X0213558Y0018936D01*
X0213219Y0018100D01*
X0212658Y0018036D01*
X0198258Y0018036D01*
X0198258Y0018297D01*
X0188358Y0018036D02*
X0184758Y0018036D01*
X0184675Y0018297D01*
X0174124Y0018080D02*
X0173912Y0018036D01*
X0171703Y0023730D02*
X0167648Y0019675D01*
X0147943Y0019675D01*
X0146880Y0018612D01*
X0144045Y0021446D01*
X0145158Y0027936D01*
X0145158Y0045936D01*
X0145305Y0046249D01*
X0161358Y0049536D02*
X0161250Y0050186D01*
X0161358Y0050436D01*
X0161358Y0063936D01*
X0161053Y0064753D01*
X0177392Y0064163D02*
X0177558Y0063936D01*
X0177558Y0050436D01*
X0177392Y0049596D01*
X0176658Y0049536D01*
X0161358Y0049536D01*
X0173958Y0043236D02*
X0182058Y0043236D01*
X0186558Y0047736D01*
X0197358Y0047736D01*
X0197825Y0048375D01*
X0188358Y0044136D02*
X0197358Y0035136D01*
X0197825Y0034596D01*
X0202785Y0037982D02*
X0202785Y0027155D01*
X0200620Y0024989D01*
X0174754Y0024989D01*
X0174754Y0023730D01*
X0171703Y0023730D01*
X0146880Y0018612D02*
X0146880Y0015738D01*
X0147077Y0015541D01*
X0144045Y0021446D02*
X0144258Y0021636D01*
X0145158Y0022536D01*
X0145158Y0027936D01*
X0127904Y0021446D02*
X0127158Y0021636D01*
X0119958Y0028836D01*
X0161250Y0036604D02*
X0161358Y0036936D01*
X0167658Y0036936D01*
X0173958Y0043236D01*
X0177392Y0036013D02*
X0176658Y0035136D01*
X0177558Y0035136D02*
X0177392Y0036013D01*
X0202785Y0037982D02*
X0206240Y0041436D01*
X0209058Y0041436D01*
X0211758Y0044136D01*
X0211758Y0067536D01*
X0217158Y0072936D01*
X0217158Y0078336D01*
X0217825Y0078375D01*
X0221658Y0092736D02*
X0232458Y0081936D01*
X0232458Y0053136D01*
X0227958Y0048636D01*
X0227825Y0048375D01*
X0237825Y0048375D02*
X0237858Y0047736D01*
X0244158Y0041436D01*
X0249558Y0041436D01*
X0252258Y0044136D01*
X0252258Y0082836D01*
X0214458Y0120636D01*
X0214458Y0127583D01*
X0218730Y0131682D02*
X0220718Y0129695D01*
X0223258Y0129695D01*
X0228463Y0124489D01*
X0234085Y0125186D02*
X0234085Y0106879D01*
X0234281Y0106682D01*
X0236371Y0106682D01*
X0250318Y0092736D01*
X0243258Y0081936D02*
X0230658Y0094536D01*
X0203658Y0094536D01*
X0191058Y0107136D01*
X0191058Y0130536D01*
X0190349Y0130536D01*
X0189006Y0131879D01*
X0186250Y0135423D02*
X0189793Y0138966D01*
X0193455Y0138966D01*
X0193533Y0138887D01*
X0193337Y0138690D01*
X0193533Y0138887D02*
X0192352Y0137706D01*
X0192858Y0138636D02*
X0193533Y0138887D01*
X0192864Y0139556D01*
X0186250Y0135423D02*
X0186053Y0135423D01*
X0179754Y0129123D01*
X0176407Y0129123D01*
X0176407Y0129714D01*
X0174439Y0131682D01*
X0163809Y0131682D01*
X0163415Y0131289D01*
X0163305Y0131289D01*
X0134358Y0160236D01*
X0133820Y0161070D01*
X0143820Y0161070D02*
X0144258Y0160236D01*
X0144258Y0157336D01*
X0151801Y0149793D01*
X0151801Y0149596D01*
X0162234Y0139163D01*
X0167274Y0139163D01*
X0167549Y0138887D01*
X0166758Y0139536D01*
X0164958Y0139536D01*
X0180541Y0136604D02*
X0180541Y0143493D01*
X0180935Y0143887D01*
X0181132Y0143887D01*
X0185387Y0148142D01*
X0190158Y0148536D01*
X0189833Y0149320D01*
X0197352Y0149281D02*
X0197358Y0149436D01*
X0204754Y0146052D02*
X0205148Y0146446D01*
X0206329Y0146446D01*
X0209478Y0149596D01*
X0212352Y0149596D01*
X0212864Y0150108D01*
X0213558Y0149436D01*
X0219858Y0150336D02*
X0220384Y0150068D01*
X0220108Y0150344D01*
X0220384Y0150068D02*
X0220758Y0149436D01*
X0220859Y0149436D01*
X0220384Y0150068D02*
X0220758Y0150336D01*
X0233100Y0148808D02*
X0233100Y0141722D01*
X0232904Y0141525D01*
X0232904Y0136407D01*
X0233100Y0136210D01*
X0233494Y0136210D01*
X0243927Y0125777D01*
X0243927Y0111360D01*
X0244494Y0110793D01*
X0273858Y0081036D01*
X0273858Y0073836D01*
X0276558Y0071136D01*
X0290958Y0071136D01*
X0297258Y0064836D01*
X0297825Y0064596D01*
X0277825Y0064596D02*
X0277458Y0064836D01*
X0247758Y0048636D02*
X0243258Y0053136D01*
X0243258Y0081936D01*
X0247825Y0078375D02*
X0248658Y0079236D01*
X0216258Y0111636D01*
X0197358Y0111636D01*
X0197077Y0111997D01*
X0187458Y0109836D02*
X0169458Y0109836D01*
X0169321Y0110619D01*
X0173058Y0096336D02*
X0153258Y0116136D01*
X0141558Y0116136D01*
X0141171Y0116525D01*
X0135258Y0112536D02*
X0134675Y0113119D01*
X0134675Y0119871D01*
X0125358Y0129189D01*
X0125358Y0133236D01*
X0124833Y0133966D01*
X0119911Y0129123D02*
X0130344Y0118690D01*
X0130344Y0113375D01*
X0130148Y0113178D01*
X0130148Y0113375D01*
X0130344Y0113178D01*
X0130344Y0111210D01*
X0130738Y0110816D01*
X0131578Y0110816D01*
X0138970Y0103423D01*
X0138970Y0098923D01*
X0145158Y0092736D01*
X0221658Y0092736D01*
X0196458Y0096336D02*
X0173058Y0096336D01*
X0153820Y0101070D02*
X0153258Y0101736D01*
X0149658Y0105336D01*
X0141558Y0105336D01*
X0135258Y0111636D01*
X0135258Y0112536D01*
X0122077Y0114950D02*
X0121758Y0114336D01*
X0121758Y0112844D01*
X0122077Y0114950D02*
X0121758Y0115236D01*
X0114558Y0119736D02*
X0114558Y0108936D01*
X0108258Y0102636D01*
X0108258Y0088236D01*
X0107358Y0087336D01*
X0106722Y0086604D01*
X0104602Y0084483D01*
X0104602Y0070546D01*
X0094758Y0062136D02*
X0094518Y0062391D01*
X0080935Y0062194D02*
X0080358Y0062136D01*
X0070458Y0062136D01*
X0070458Y0086436D01*
X0069558Y0087336D01*
X0059658Y0087336D01*
X0056958Y0090036D01*
X0043458Y0090036D01*
X0042746Y0090147D01*
X0065058Y0095436D02*
X0065187Y0094871D01*
X0065058Y0095436D02*
X0065058Y0115236D01*
X0065187Y0115365D01*
X0065187Y0118690D01*
X0065974Y0119478D01*
X0066959Y0119478D01*
X0070817Y0123336D01*
X0078558Y0123336D01*
X0079037Y0123917D01*
X0083058Y0128736D02*
X0083958Y0127836D01*
X0083958Y0102636D01*
X0076758Y0095436D01*
X0076604Y0095265D01*
X0106722Y0086604D02*
X0107358Y0086436D01*
X0118743Y0087941D02*
X0119958Y0087336D01*
X0120305Y0086604D01*
X0120858Y0086436D01*
X0131658Y0086436D02*
X0132313Y0086801D01*
X0132558Y0086436D01*
X0134478Y0084515D01*
X0145896Y0086801D02*
X0146058Y0086436D01*
X0153258Y0086436D01*
X0161053Y0078336D02*
X0165858Y0078336D01*
X0173058Y0071136D01*
X0200958Y0071136D01*
X0207258Y0064836D01*
X0207825Y0064596D01*
X0177392Y0077745D02*
X0177558Y0078336D01*
X0177392Y0077745D02*
X0176658Y0078336D01*
X0146087Y0067619D02*
X0146058Y0060336D01*
X0145305Y0059832D01*
X0094518Y0048808D02*
X0093858Y0048636D01*
X0066858Y0062136D02*
X0060558Y0055836D01*
X0060167Y0055580D01*
X0052458Y0055836D02*
X0052234Y0055659D01*
X0049439Y0058454D01*
X0040778Y0058454D01*
X0038058Y0056736D01*
X0050658Y0056736D02*
X0051558Y0055836D01*
X0052234Y0055659D01*
X0051014Y0056879D01*
X0052458Y0055836D02*
X0065058Y0068436D01*
X0065058Y0081036D01*
X0065187Y0081289D01*
X0066858Y0062136D02*
X0070458Y0062136D01*
X0042746Y0103730D02*
X0043458Y0104436D01*
X0043458Y0109836D01*
X0055158Y0121536D01*
X0055158Y0123336D01*
X0055274Y0123917D01*
X0055274Y0126417D02*
X0055158Y0126936D01*
X0055158Y0128736D01*
X0055274Y0128917D01*
X0055274Y0131417D02*
X0055158Y0131436D01*
X0046158Y0131436D01*
X0044358Y0129636D01*
X0044124Y0129320D01*
X0043458Y0128736D01*
X0044124Y0129320D02*
X0043458Y0129636D01*
X0034675Y0129636D02*
X0034675Y0129517D01*
X0034478Y0129517D01*
X0034478Y0129911D01*
X0043458Y0142236D02*
X0051558Y0134136D01*
X0055158Y0134136D01*
X0055274Y0133917D01*
X0068658Y0143136D02*
X0070458Y0141336D01*
X0078558Y0141336D01*
X0079037Y0141417D01*
X0079458Y0141336D01*
X0081258Y0143136D01*
X0106458Y0143136D01*
X0107313Y0143887D01*
X0118927Y0138966D02*
X0118927Y0129320D01*
X0119124Y0129123D01*
X0119911Y0129123D01*
X0107358Y0130536D02*
X0107313Y0130304D01*
X0106458Y0120636D02*
X0092958Y0134136D01*
X0079458Y0134136D01*
X0079037Y0133917D01*
X0079037Y0131417D02*
X0079458Y0131436D01*
X0083058Y0131436D01*
X0083058Y0128736D02*
X0079458Y0128736D01*
X0079037Y0128917D01*
X0079037Y0131417D02*
X0078558Y0131436D01*
X0075858Y0131436D01*
X0106458Y0120636D02*
X0113658Y0120636D01*
X0114558Y0119736D01*
X0108494Y0114950D02*
X0108258Y0115236D01*
X0141171Y0130108D02*
X0141558Y0129636D01*
X0153258Y0117936D01*
X0182058Y0117936D01*
X0187458Y0123336D01*
X0197077Y0125580D02*
X0197358Y0126036D01*
X0197358Y0130536D01*
X0200058Y0133236D01*
X0200958Y0134136D01*
X0200958Y0133707D01*
X0203179Y0131486D01*
X0218533Y0131486D01*
X0218730Y0131682D01*
X0226211Y0133060D02*
X0234085Y0125186D01*
X0246683Y0121840D02*
X0246683Y0134635D01*
X0246289Y0135029D01*
X0245817Y0135029D01*
X0239990Y0140856D01*
X0240558Y0140436D01*
X0226158Y0136604D02*
X0225961Y0136407D01*
X0223258Y0136407D01*
X0226158Y0136604D02*
X0226158Y0134097D01*
X0226211Y0134045D01*
X0226211Y0133060D01*
X0216565Y0139675D02*
X0215463Y0138572D01*
X0212037Y0138572D01*
X0204754Y0138966D02*
X0204754Y0146052D01*
X0178965Y0154666D02*
X0177342Y0156289D01*
X0164400Y0156289D01*
X0163848Y0155738D01*
X0163848Y0149320D01*
X0164058Y0148536D01*
X0171368Y0149281D02*
X0172158Y0149436D01*
X0168533Y0163769D02*
X0156776Y0154767D01*
X0156776Y0153036D01*
X0168533Y0163769D02*
X0295305Y0163769D01*
X0295121Y0162969D01*
X0295121Y0160039D01*
X0305111Y0161364D02*
X0305191Y0161364D01*
X0308691Y0157864D01*
X0311053Y0157864D01*
X0313612Y0155304D01*
X0318337Y0155304D01*
X0320305Y0153336D01*
X0319911Y0152942D01*
X0320305Y0153336D02*
X0323455Y0153336D01*
X0323848Y0152942D01*
X0323848Y0144281D01*
X0315504Y0135936D01*
X0311658Y0135936D01*
X0311658Y0120636D01*
X0312558Y0119736D01*
X0332374Y0119736D01*
X0332510Y0119871D01*
X0332707Y0119871D01*
X0336447Y0123612D01*
X0336447Y0129635D01*
X0335958Y0128736D01*
X0328770Y0124399D02*
X0328573Y0134832D01*
X0333258Y0139517D01*
X0333258Y0139536D01*
X0332746Y0140068D01*
X0326998Y0141525D02*
X0326998Y0148415D01*
X0327195Y0148415D01*
X0329557Y0150777D01*
X0329754Y0150777D01*
X0329951Y0150580D01*
X0343730Y0150580D01*
X0344124Y0150186D01*
X0344124Y0149793D01*
X0346880Y0147037D01*
X0346880Y0144084D01*
X0347041Y0143923D01*
X0347041Y0143136D01*
X0347470Y0142706D01*
X0347470Y0119478D01*
X0345111Y0117118D01*
X0345111Y0101364D01*
X0349458Y0103536D02*
X0349458Y0091836D01*
X0344958Y0087336D01*
X0344958Y0065736D01*
X0327858Y0048636D01*
X0327825Y0048375D01*
X0317825Y0048375D02*
X0317058Y0048636D01*
X0313458Y0052236D01*
X0313458Y0081036D01*
X0310758Y0083736D01*
X0310758Y0105797D01*
X0310856Y0105895D01*
X0310856Y0106486D01*
X0300620Y0116722D01*
X0300620Y0138769D01*
X0300423Y0138966D01*
X0300423Y0145147D01*
X0303022Y0147745D01*
X0303558Y0147636D01*
X0309858Y0148536D02*
X0310541Y0147706D01*
X0310463Y0147785D01*
X0310463Y0151367D01*
X0310541Y0147706D02*
X0310758Y0147636D01*
X0311658Y0146736D01*
X0317058Y0131585D02*
X0326998Y0141525D01*
X0339558Y0140436D02*
X0340266Y0140029D01*
X0339558Y0140436D02*
X0339558Y0143136D01*
X0351258Y0142236D02*
X0355148Y0140934D01*
X0354951Y0141131D01*
X0354951Y0149202D01*
X0354754Y0149399D01*
X0349833Y0149399D01*
X0345896Y0153336D01*
X0338612Y0153336D01*
X0335312Y0156636D01*
X0319758Y0156636D01*
X0315258Y0161136D01*
X0315111Y0161364D01*
X0305358Y0161136D02*
X0305111Y0161364D01*
X0335111Y0161364D02*
X0335958Y0161136D01*
X0336127Y0161136D01*
X0340778Y0156486D01*
X0350226Y0156486D01*
X0350226Y0155529D01*
X0351876Y0153879D01*
X0307158Y0136836D02*
X0306722Y0137312D01*
X0307158Y0136836D02*
X0307158Y0130536D01*
X0317058Y0131585D02*
X0317058Y0126936D01*
X0316959Y0126171D01*
X0304458Y0108036D02*
X0294558Y0117936D01*
X0264858Y0117936D01*
X0255858Y0126936D01*
X0253158Y0126936D01*
X0252982Y0126958D01*
X0260358Y0127836D02*
X0266658Y0121536D01*
X0260358Y0119736D02*
X0284658Y0095436D01*
X0290958Y0095436D02*
X0307158Y0079236D01*
X0307825Y0078375D01*
X0297825Y0078375D02*
X0297258Y0079236D01*
X0290958Y0085536D01*
X0275658Y0085536D01*
X0253158Y0108036D01*
X0253158Y0112536D01*
X0252982Y0113375D01*
X0248787Y0119736D02*
X0246683Y0121840D01*
X0248787Y0119736D02*
X0260358Y0119736D01*
X0270502Y0134438D02*
X0278921Y0126019D01*
X0278921Y0125333D01*
X0290384Y0125580D02*
X0290958Y0126036D01*
X0290958Y0135936D01*
X0296105Y0139536D02*
X0279258Y0139536D01*
X0278967Y0138887D01*
X0270502Y0134438D02*
X0270502Y0143887D01*
X0269715Y0144675D01*
X0270620Y0144675D01*
X0275266Y0149320D01*
X0275658Y0148536D01*
X0281958Y0149436D02*
X0282785Y0149281D01*
X0263612Y0151367D02*
X0263612Y0136210D01*
X0263809Y0136013D01*
X0234793Y0150501D02*
X0233100Y0148808D01*
X0234793Y0150501D02*
X0234793Y0151289D01*
X0236289Y0151289D01*
X0236958Y0151236D01*
X0243258Y0152136D02*
X0243809Y0151249D01*
X0204558Y0126936D02*
X0204558Y0125136D01*
X0212658Y0117036D01*
X0239596Y0110226D02*
X0240384Y0109438D01*
X0240384Y0109241D01*
X0290384Y0111997D02*
X0290958Y0111636D01*
X0290958Y0095436D01*
X0304458Y0101736D02*
X0305111Y0101364D01*
X0304458Y0101736D02*
X0304458Y0108036D01*
X0317058Y0107136D02*
X0317058Y0112536D01*
X0316959Y0112588D01*
X0317058Y0107136D02*
X0319758Y0104436D01*
X0319758Y0081036D01*
X0317958Y0079236D01*
X0317825Y0078375D01*
X0327825Y0078375D02*
X0327858Y0079236D01*
X0327858Y0083736D01*
X0339558Y0095436D01*
X0339558Y0115344D01*
X0339361Y0115147D01*
X0333494Y0115147D01*
X0347470Y0118493D02*
X0347470Y0119478D01*
X0351258Y0112241D02*
X0355148Y0116131D01*
X0355148Y0127352D01*
X0351258Y0127836D01*
X0351258Y0112241D02*
X0351258Y0105336D01*
X0349458Y0103536D01*
X0352785Y0084241D02*
X0353058Y0083736D01*
X0353058Y0072036D01*
X0354858Y0070236D01*
X0355108Y0069438D01*
X0338658Y0075636D02*
X0327858Y0064836D01*
X0327825Y0064596D01*
X0338658Y0075636D02*
X0338658Y0083736D01*
X0339203Y0084241D01*
X0258558Y0078336D02*
X0257825Y0078375D01*
X0257904Y0078454D01*
X0257825Y0078375D02*
X0257658Y0079236D01*
X0247758Y0048636D02*
X0247825Y0048375D01*
X0277458Y0047736D02*
X0277825Y0048375D01*
X0267558Y0035136D02*
X0267825Y0034596D01*
X0267825Y0034517D01*
X0260522Y0027214D01*
X0271722Y0021367D02*
X0275954Y0017136D01*
X0278358Y0017136D01*
X0279951Y0017509D01*
X0279258Y0017136D01*
X0278358Y0017136D01*
X0275954Y0017136D02*
X0263958Y0017136D01*
X0263415Y0017706D01*
X0251358Y0018036D02*
X0251358Y0018129D01*
X0240767Y0018129D01*
X0240640Y0018001D01*
X0240640Y0018041D01*
X0240659Y0018060D01*
X0234258Y0018036D02*
X0227058Y0018036D01*
X0226801Y0018100D01*
X0249558Y0017136D02*
X0249833Y0017706D01*
X0250458Y0018036D01*
X0251358Y0018036D01*
X0292758Y0018036D02*
X0293533Y0017509D01*
X0292758Y0018036D02*
X0302679Y0021639D01*
X0304048Y0014724D02*
X0311142Y0017204D01*
X0311644Y0017706D01*
X0311658Y0018036D01*
X0325158Y0018036D02*
X0325226Y0017706D01*
X0326058Y0017136D01*
X0331821Y0017136D01*
X0331959Y0017274D01*
X0331959Y0023297D01*
X0331821Y0017136D02*
X0338658Y0017136D01*
X0338809Y0017509D01*
X0352158Y0018036D02*
X0352392Y0017509D01*
X0352392Y0025304D01*
X0352333Y0025364D01*
X0350574Y0027936D02*
X0349400Y0027135D01*
X0350574Y0027936D02*
X0352158Y0027936D01*
X0357530Y0025364D02*
X0357549Y0025344D01*
X0355935Y0034832D02*
X0355758Y0035136D01*
X0355758Y0048636D01*
X0355108Y0049438D01*
X0349892Y0044281D02*
X0349400Y0044163D01*
X0342258Y0035136D02*
X0327858Y0035136D01*
X0327825Y0034596D01*
X0342258Y0035136D02*
X0342352Y0034832D01*
X0317175Y0027155D02*
X0317116Y0027214D01*
X0258558Y0035136D02*
X0257825Y0034596D01*
X0227825Y0034596D02*
X0227058Y0034236D01*
X0058758Y0111636D02*
X0057904Y0110816D01*
X0058758Y0111636D02*
X0058758Y0114336D01*
X0118927Y0138966D02*
X0121132Y0141171D01*
X0121132Y0144399D01*
X0121758Y0144936D01*
X0128058Y0144036D02*
X0128652Y0144360D01*
X0127158Y0156636D02*
X0157758Y0126036D01*
X0160458Y0123336D02*
X0159558Y0122436D01*
X0154158Y0122436D01*
X0148758Y0127836D01*
X0160458Y0123336D02*
X0168558Y0123336D01*
X0169321Y0124202D01*
X0127158Y0156636D02*
X0070458Y0156636D01*
X0069911Y0156682D01*
X0069558Y0156636D01*
X0052458Y0156636D01*
X0052392Y0157470D01*
X0038809Y0157470D02*
X0038809Y0153533D01*
X0038058Y0156636D02*
X0038809Y0157470D01*
X0044358Y0150336D02*
X0044358Y0143136D01*
X0044124Y0142903D01*
X0043458Y0142236D01*
X0068658Y0143136D02*
X0068658Y0149436D01*
X0067943Y0149989D01*
X0071880Y0149989D02*
X0072258Y0149436D01*
X0071880Y0149989D02*
X0072258Y0150336D01*
D24*
X0087234Y0150383D03*
X0087825Y0138769D03*
X0064400Y0128139D03*
X0092746Y0126564D03*
X0079163Y0111013D03*
X0053770Y0102942D03*
X0126211Y0076564D03*
X0104602Y0070546D03*
X0113068Y0066607D03*
X0146087Y0067619D03*
X0153342Y0056735D03*
X0188358Y0044136D03*
X0189989Y0029567D03*
X0234258Y0018036D03*
X0240600Y0018041D03*
X0271722Y0021367D03*
X0302679Y0021639D03*
X0304048Y0014724D03*
X0331959Y0023297D03*
X0357549Y0025344D03*
X0210970Y0086914D03*
X0196458Y0096336D03*
X0187458Y0109836D03*
X0212658Y0117036D03*
X0228463Y0124489D03*
X0214458Y0127583D03*
X0204558Y0126936D03*
X0200058Y0133236D03*
X0189006Y0131879D03*
X0180541Y0136604D03*
X0204754Y0138966D03*
X0212037Y0138572D03*
X0223258Y0136407D03*
X0260358Y0127836D03*
X0266658Y0121536D03*
X0278921Y0125333D03*
X0290958Y0135936D03*
X0296105Y0139536D03*
X0307158Y0130536D03*
X0328770Y0124399D03*
X0333494Y0115147D03*
X0284658Y0095436D03*
X0250318Y0092736D03*
X0170161Y0080614D03*
X0153258Y0086436D03*
X0076801Y0073415D03*
X0072667Y0046643D03*
X0119958Y0028836D03*
X0187458Y0123336D03*
X0157758Y0126036D03*
X0148758Y0127836D03*
X0156776Y0153036D03*
X0178965Y0154666D03*
X0263612Y0151367D03*
X0295121Y0160039D03*
X0318730Y0146840D03*
X0339614Y0146820D03*
X0351876Y0153879D03*
X0263809Y0136013D03*
X0044358Y0150336D03*
D25*
X0072258Y0150336D02*
X0087187Y0150336D01*
X0087234Y0150383D01*
X0087825Y0138769D02*
X0098061Y0138769D01*
X0106294Y0130536D01*
X0107358Y0130536D01*
X0092746Y0126564D02*
X0090778Y0128533D01*
X0090778Y0130501D01*
X0089843Y0131436D01*
X0083058Y0131436D01*
X0085472Y0136417D02*
X0079037Y0136417D01*
X0079027Y0136407D01*
X0065187Y0136407D01*
X0065187Y0128927D01*
X0064400Y0128139D01*
X0063622Y0128917D01*
X0055274Y0128917D01*
X0085472Y0136417D02*
X0087825Y0138769D01*
X0079163Y0111013D02*
X0078967Y0110816D01*
X0071486Y0110816D01*
X0106722Y0086604D02*
X0107358Y0085968D01*
D26*
X0076801Y0081486D02*
X0076604Y0081682D01*
X0076801Y0081486D02*
X0076801Y0073415D01*
X0128179Y0071249D02*
X0128376Y0071249D01*
X0128770Y0070856D01*
X0078558Y0050436D02*
X0074765Y0046643D01*
X0072667Y0046643D01*
X0053770Y0102942D02*
X0053770Y0106682D01*
X0057904Y0110816D01*
X0092746Y0126564D02*
X0099242Y0120068D01*
X0099242Y0115738D01*
X0099744Y0115236D01*
X0108258Y0115236D01*
D27*
X0170161Y0080614D02*
X0172439Y0078336D01*
X0176658Y0078336D01*
X0128770Y0070856D02*
X0128770Y0058848D01*
X0128179Y0071249D02*
X0128179Y0074596D01*
X0126211Y0076564D01*
D28*
X0173912Y0018036D02*
X0184758Y0018036D01*
D29*
X0174124Y0018080D03*
D30*
X0258558Y0035136D02*
X0258558Y0035742D01*
X0263907Y0041564D01*
X0270994Y0041564D01*
X0272136Y0041643D01*
X0272136Y0043623D01*
X0275658Y0047736D01*
X0277458Y0047736D01*
X0277458Y0064836D02*
X0270902Y0071549D01*
X0265502Y0071549D01*
X0258558Y0078336D01*
M02*
