G75*
%MOIN*%
%OFA0B0*%
%FSLAX25Y25*%
%IPPOS*%
%LPD*%
%AMOC8*
5,1,8,0,0,1.08239X$1,22.5*
%
%ADD10R,0.05150X0.05150*%
%ADD11C,0.05200*%
%ADD12C,0.05543*%
%ADD13R,0.07874X0.08661*%
%ADD14R,0.13843X0.13843*%
%ADD15R,0.05937X0.05937*%
%ADD16R,0.08661X0.23622*%
%ADD17R,0.07874X0.12992*%
%ADD18R,0.07874X0.13780*%
%ADD19R,0.05906X0.11811*%
%ADD20C,0.01600*%
%ADD21C,0.01969*%
%ADD22C,0.01000*%
%ADD23C,0.03150*%
%ADD24C,0.01575*%
%ADD25C,0.04000*%
%ADD26C,0.05000*%
%ADD27C,0.02400*%
%ADD28C,0.02205*%
%ADD29R,0.04356X0.04356*%
%ADD30C,0.04000*%
%ADD31C,0.01200*%
D10*
X0278297Y0090147D03*
X0288297Y0090147D03*
X0305111Y0101364D03*
X0315111Y0101364D03*
X0325111Y0101364D03*
X0335111Y0101364D03*
X0345111Y0101364D03*
X0355111Y0101364D03*
X0355111Y0161364D03*
X0345111Y0161364D03*
X0335111Y0161364D03*
X0325111Y0161364D03*
X0315111Y0161364D03*
X0305111Y0161364D03*
X0153820Y0161070D03*
X0143820Y0161070D03*
X0133820Y0161070D03*
X0123820Y0161070D03*
X0113820Y0161070D03*
X0103820Y0161070D03*
X0103820Y0101070D03*
X0113820Y0101070D03*
X0123820Y0101070D03*
X0133820Y0101070D03*
X0143820Y0101070D03*
X0153820Y0101070D03*
D11*
X0197825Y0080975D02*
X0197825Y0075775D01*
X0207825Y0075775D02*
X0207825Y0080975D01*
X0217825Y0080975D02*
X0217825Y0075775D01*
X0227825Y0075775D02*
X0227825Y0080975D01*
X0237825Y0080975D02*
X0237825Y0075775D01*
X0247825Y0075775D02*
X0247825Y0080975D01*
X0257825Y0080975D02*
X0257825Y0075775D01*
X0267825Y0075775D02*
X0267825Y0080975D01*
X0277825Y0080975D02*
X0277825Y0075775D01*
X0287825Y0075775D02*
X0287825Y0080975D01*
X0297825Y0080975D02*
X0297825Y0075775D01*
X0307825Y0075775D02*
X0307825Y0080975D01*
X0317825Y0080975D02*
X0317825Y0075775D01*
X0327825Y0075775D02*
X0327825Y0080975D01*
X0327825Y0067196D02*
X0327825Y0061996D01*
X0317825Y0061996D02*
X0317825Y0067196D01*
X0307825Y0067196D02*
X0307825Y0061996D01*
X0297825Y0061996D02*
X0297825Y0067196D01*
X0287825Y0067196D02*
X0287825Y0061996D01*
X0277825Y0061996D02*
X0277825Y0067196D01*
X0267825Y0067196D02*
X0267825Y0061996D01*
X0257825Y0061996D02*
X0257825Y0067196D01*
X0247825Y0067196D02*
X0247825Y0061996D01*
X0237825Y0061996D02*
X0237825Y0067196D01*
X0227825Y0067196D02*
X0227825Y0061996D01*
X0217825Y0061996D02*
X0217825Y0067196D01*
X0207825Y0067196D02*
X0207825Y0061996D01*
X0197825Y0061996D02*
X0197825Y0067196D01*
X0197825Y0050975D02*
X0197825Y0045775D01*
X0207825Y0045775D02*
X0207825Y0050975D01*
X0217825Y0050975D02*
X0217825Y0045775D01*
X0227825Y0045775D02*
X0227825Y0050975D01*
X0237825Y0050975D02*
X0237825Y0045775D01*
X0247825Y0045775D02*
X0247825Y0050975D01*
X0257825Y0050975D02*
X0257825Y0045775D01*
X0267825Y0045775D02*
X0267825Y0050975D01*
X0277825Y0050975D02*
X0277825Y0045775D01*
X0287825Y0045775D02*
X0287825Y0050975D01*
X0297825Y0050975D02*
X0297825Y0045775D01*
X0307825Y0045775D02*
X0307825Y0050975D01*
X0317825Y0050975D02*
X0317825Y0045775D01*
X0327825Y0045775D02*
X0327825Y0050975D01*
X0327825Y0037196D02*
X0327825Y0031996D01*
X0317825Y0031996D02*
X0317825Y0037196D01*
X0307825Y0037196D02*
X0307825Y0031996D01*
X0297825Y0031996D02*
X0297825Y0037196D01*
X0287825Y0037196D02*
X0287825Y0031996D01*
X0277825Y0031996D02*
X0277825Y0037196D01*
X0267825Y0037196D02*
X0267825Y0031996D01*
X0257825Y0031996D02*
X0257825Y0037196D01*
X0247825Y0037196D02*
X0247825Y0031996D01*
X0237825Y0031996D02*
X0237825Y0037196D01*
X0227825Y0037196D02*
X0227825Y0031996D01*
X0217825Y0031996D02*
X0217825Y0037196D01*
X0207825Y0037196D02*
X0207825Y0031996D01*
X0197825Y0031996D02*
X0197825Y0037196D01*
D12*
X0355108Y0049438D03*
X0355108Y0059438D03*
X0355108Y0069438D03*
D13*
X0112825Y0058651D03*
X0112825Y0045068D03*
D14*
X0041565Y0027037D03*
X0041565Y0074438D03*
D15*
X0052234Y0055659D03*
X0060167Y0055580D03*
X0060187Y0045797D03*
X0052234Y0045816D03*
D16*
X0112549Y0023415D03*
X0128061Y0023415D03*
X0144045Y0023415D03*
D17*
X0178967Y0038572D03*
D18*
X0178967Y0077942D03*
D19*
X0192037Y0016643D03*
X0220620Y0016446D03*
X0256604Y0017037D03*
X0285187Y0016840D03*
X0322352Y0016801D03*
X0350935Y0016604D03*
D20*
X0031176Y0012632D02*
X0031176Y0163725D01*
X0097667Y0163725D01*
X0097667Y0104915D01*
X0097158Y0104406D01*
X0097158Y0097266D01*
X0097667Y0096757D01*
X0097667Y0012632D01*
X0031176Y0012632D01*
X0031176Y0013187D02*
X0097667Y0013187D01*
X0097667Y0014786D02*
X0031176Y0014786D01*
X0031176Y0016384D02*
X0097667Y0016384D01*
X0097667Y0017983D02*
X0031176Y0017983D01*
X0031176Y0019581D02*
X0032923Y0019581D01*
X0032966Y0019421D02*
X0033203Y0019010D01*
X0033538Y0018675D01*
X0033949Y0018438D01*
X0034407Y0018315D01*
X0040765Y0018315D01*
X0040765Y0026237D01*
X0032844Y0026237D01*
X0032844Y0019878D01*
X0032966Y0019421D01*
X0032844Y0021180D02*
X0031176Y0021180D01*
X0031176Y0022778D02*
X0032844Y0022778D01*
X0032844Y0024377D02*
X0031176Y0024377D01*
X0031176Y0025975D02*
X0032844Y0025975D01*
X0032844Y0027837D02*
X0040765Y0027837D01*
X0040765Y0035758D01*
X0034407Y0035758D01*
X0033949Y0035635D01*
X0033538Y0035398D01*
X0033203Y0035063D01*
X0032966Y0034653D01*
X0032844Y0034195D01*
X0032844Y0027837D01*
X0032844Y0029172D02*
X0031176Y0029172D01*
X0031176Y0027574D02*
X0040765Y0027574D01*
X0040765Y0027837D02*
X0040765Y0026237D01*
X0042365Y0026237D01*
X0042365Y0027837D01*
X0040765Y0027837D01*
X0040765Y0029172D02*
X0042365Y0029172D01*
X0042365Y0027837D02*
X0042365Y0035758D01*
X0048723Y0035758D01*
X0049181Y0035635D01*
X0049591Y0035398D01*
X0049927Y0035063D01*
X0050164Y0034653D01*
X0050286Y0034195D01*
X0050286Y0027837D01*
X0042365Y0027837D01*
X0042365Y0027574D02*
X0097667Y0027574D01*
X0097667Y0029172D02*
X0050286Y0029172D01*
X0050286Y0030771D02*
X0097667Y0030771D01*
X0097667Y0032369D02*
X0050286Y0032369D01*
X0050286Y0033968D02*
X0097667Y0033968D01*
X0097667Y0035566D02*
X0049301Y0035566D01*
X0042365Y0035566D02*
X0040765Y0035566D01*
X0040765Y0033968D02*
X0042365Y0033968D01*
X0042365Y0032369D02*
X0040765Y0032369D01*
X0040765Y0030771D02*
X0042365Y0030771D01*
X0042365Y0026237D02*
X0050286Y0026237D01*
X0050286Y0019878D01*
X0050164Y0019421D01*
X0049927Y0019010D01*
X0049591Y0018675D01*
X0049181Y0018438D01*
X0048723Y0018315D01*
X0042365Y0018315D01*
X0042365Y0026237D01*
X0042365Y0025975D02*
X0040765Y0025975D01*
X0040765Y0024377D02*
X0042365Y0024377D01*
X0042365Y0022778D02*
X0040765Y0022778D01*
X0040765Y0021180D02*
X0042365Y0021180D01*
X0042365Y0019581D02*
X0040765Y0019581D01*
X0050207Y0019581D02*
X0097667Y0019581D01*
X0097667Y0021180D02*
X0050286Y0021180D01*
X0050286Y0022778D02*
X0097667Y0022778D01*
X0097667Y0024377D02*
X0050286Y0024377D01*
X0050286Y0025975D02*
X0097667Y0025975D01*
X0097667Y0037165D02*
X0031176Y0037165D01*
X0031176Y0038763D02*
X0097667Y0038763D01*
X0097667Y0040362D02*
X0031176Y0040362D01*
X0031176Y0041960D02*
X0047700Y0041960D01*
X0047588Y0042153D02*
X0047825Y0041743D01*
X0048161Y0041407D01*
X0048571Y0041170D01*
X0049029Y0041048D01*
X0052050Y0041048D01*
X0052050Y0045632D01*
X0052419Y0045632D01*
X0052419Y0041048D01*
X0055440Y0041048D01*
X0055898Y0041170D01*
X0056308Y0041407D01*
X0056342Y0041442D01*
X0056556Y0041228D01*
X0063818Y0041228D01*
X0064755Y0042165D01*
X0064755Y0049428D01*
X0063818Y0050365D01*
X0056556Y0050365D01*
X0056362Y0050171D01*
X0056308Y0050225D01*
X0055898Y0050462D01*
X0055440Y0050585D01*
X0052419Y0050585D01*
X0052419Y0046001D01*
X0052050Y0046001D01*
X0052050Y0050585D01*
X0049029Y0050585D01*
X0048571Y0050462D01*
X0048161Y0050225D01*
X0047825Y0049890D01*
X0047588Y0049480D01*
X0047466Y0049022D01*
X0047466Y0046001D01*
X0052050Y0046001D01*
X0052050Y0045632D01*
X0047466Y0045632D01*
X0047466Y0042611D01*
X0047588Y0042153D01*
X0047466Y0043559D02*
X0031176Y0043559D01*
X0031176Y0045157D02*
X0047466Y0045157D01*
X0047466Y0046756D02*
X0031176Y0046756D01*
X0031176Y0048354D02*
X0047466Y0048354D01*
X0047888Y0049953D02*
X0031176Y0049953D01*
X0031176Y0051551D02*
X0048142Y0051551D01*
X0048603Y0051090D02*
X0047666Y0052028D01*
X0047666Y0059290D01*
X0048603Y0060227D01*
X0055865Y0060227D01*
X0056240Y0059853D01*
X0056536Y0060149D01*
X0063799Y0060149D01*
X0064736Y0059211D01*
X0064736Y0051949D01*
X0063799Y0051012D01*
X0056536Y0051012D01*
X0056161Y0051386D01*
X0055865Y0051090D01*
X0048603Y0051090D01*
X0052050Y0049953D02*
X0052419Y0049953D01*
X0052419Y0048354D02*
X0052050Y0048354D01*
X0052050Y0046756D02*
X0052419Y0046756D01*
X0052419Y0045157D02*
X0052050Y0045157D01*
X0052050Y0043559D02*
X0052419Y0043559D01*
X0052419Y0041960D02*
X0052050Y0041960D01*
X0064550Y0041960D02*
X0097667Y0041960D01*
X0097667Y0043559D02*
X0064755Y0043559D01*
X0064755Y0045157D02*
X0097667Y0045157D01*
X0097667Y0046756D02*
X0064755Y0046756D01*
X0064755Y0048354D02*
X0097667Y0048354D01*
X0097667Y0049953D02*
X0064230Y0049953D01*
X0064338Y0051551D02*
X0097667Y0051551D01*
X0097667Y0053150D02*
X0064736Y0053150D01*
X0064736Y0054748D02*
X0097667Y0054748D01*
X0097667Y0056347D02*
X0064736Y0056347D01*
X0064736Y0057945D02*
X0097667Y0057945D01*
X0097667Y0059544D02*
X0064403Y0059544D01*
X0047920Y0059544D02*
X0031176Y0059544D01*
X0031176Y0061142D02*
X0097667Y0061142D01*
X0097667Y0062741D02*
X0031176Y0062741D01*
X0031176Y0064339D02*
X0097667Y0064339D01*
X0097667Y0065938D02*
X0049351Y0065938D01*
X0049181Y0065840D02*
X0049591Y0066077D01*
X0049927Y0066412D01*
X0050164Y0066822D01*
X0050286Y0067280D01*
X0050286Y0073638D01*
X0042365Y0073638D01*
X0042365Y0065717D01*
X0048723Y0065717D01*
X0049181Y0065840D01*
X0050286Y0067536D02*
X0097667Y0067536D01*
X0097667Y0069135D02*
X0050286Y0069135D01*
X0050286Y0070733D02*
X0097667Y0070733D01*
X0097667Y0072332D02*
X0050286Y0072332D01*
X0050286Y0075238D02*
X0050286Y0081597D01*
X0050164Y0082054D01*
X0049927Y0082465D01*
X0049591Y0082800D01*
X0049181Y0083037D01*
X0048723Y0083160D01*
X0042365Y0083160D01*
X0042365Y0075238D01*
X0050286Y0075238D01*
X0050286Y0075529D02*
X0097667Y0075529D01*
X0097667Y0073931D02*
X0042365Y0073931D01*
X0042365Y0073638D02*
X0042365Y0075238D01*
X0040765Y0075238D01*
X0040765Y0073638D01*
X0042365Y0073638D01*
X0042365Y0072332D02*
X0040765Y0072332D01*
X0040765Y0073638D02*
X0040765Y0065717D01*
X0034407Y0065717D01*
X0033949Y0065840D01*
X0033538Y0066077D01*
X0033203Y0066412D01*
X0032966Y0066822D01*
X0032844Y0067280D01*
X0032844Y0073638D01*
X0040765Y0073638D01*
X0040765Y0073931D02*
X0031176Y0073931D01*
X0031176Y0075529D02*
X0032844Y0075529D01*
X0032844Y0075238D02*
X0040765Y0075238D01*
X0040765Y0083160D01*
X0034407Y0083160D01*
X0033949Y0083037D01*
X0033538Y0082800D01*
X0033203Y0082465D01*
X0032966Y0082054D01*
X0032844Y0081597D01*
X0032844Y0075238D01*
X0032844Y0072332D02*
X0031176Y0072332D01*
X0031176Y0070733D02*
X0032844Y0070733D01*
X0032844Y0069135D02*
X0031176Y0069135D01*
X0031176Y0067536D02*
X0032844Y0067536D01*
X0033779Y0065938D02*
X0031176Y0065938D01*
X0040765Y0065938D02*
X0042365Y0065938D01*
X0042365Y0067536D02*
X0040765Y0067536D01*
X0040765Y0069135D02*
X0042365Y0069135D01*
X0042365Y0070733D02*
X0040765Y0070733D01*
X0040765Y0075529D02*
X0042365Y0075529D01*
X0042365Y0077128D02*
X0040765Y0077128D01*
X0040765Y0078726D02*
X0042365Y0078726D01*
X0042365Y0080325D02*
X0040765Y0080325D01*
X0040765Y0081923D02*
X0042365Y0081923D01*
X0050199Y0081923D02*
X0097667Y0081923D01*
X0097667Y0080325D02*
X0050286Y0080325D01*
X0050286Y0078726D02*
X0097667Y0078726D01*
X0097667Y0077128D02*
X0050286Y0077128D01*
X0032844Y0077128D02*
X0031176Y0077128D01*
X0031176Y0078726D02*
X0032844Y0078726D01*
X0032844Y0080325D02*
X0031176Y0080325D01*
X0031176Y0081923D02*
X0032931Y0081923D01*
X0031176Y0083522D02*
X0097667Y0083522D01*
X0097667Y0085120D02*
X0031176Y0085120D01*
X0031176Y0086719D02*
X0097667Y0086719D01*
X0097667Y0088317D02*
X0031176Y0088317D01*
X0031176Y0089916D02*
X0097667Y0089916D01*
X0097667Y0091514D02*
X0031176Y0091514D01*
X0031176Y0093113D02*
X0097667Y0093113D01*
X0097667Y0094711D02*
X0031176Y0094711D01*
X0031176Y0096310D02*
X0097667Y0096310D01*
X0097158Y0097908D02*
X0031176Y0097908D01*
X0031176Y0099507D02*
X0097158Y0099507D01*
X0097158Y0101105D02*
X0031176Y0101105D01*
X0031176Y0102704D02*
X0097158Y0102704D01*
X0097158Y0104302D02*
X0031176Y0104302D01*
X0031176Y0105901D02*
X0097667Y0105901D01*
X0097667Y0107499D02*
X0080087Y0107499D01*
X0079879Y0107413D02*
X0081203Y0107961D01*
X0082215Y0108974D01*
X0082763Y0110297D01*
X0082763Y0111729D01*
X0082215Y0113052D01*
X0081363Y0113904D01*
X0081363Y0115271D01*
X0080075Y0116560D01*
X0078697Y0117938D01*
X0078500Y0117938D01*
X0068000Y0128438D01*
X0068000Y0128855D01*
X0067452Y0130178D01*
X0066439Y0131191D01*
X0065116Y0131739D01*
X0063684Y0131739D01*
X0062360Y0131191D01*
X0061348Y0130178D01*
X0060800Y0128855D01*
X0060800Y0127423D01*
X0061348Y0126100D01*
X0062360Y0125087D01*
X0063684Y0124539D01*
X0065116Y0124539D01*
X0065512Y0124703D01*
X0075389Y0114826D01*
X0076637Y0113578D01*
X0076111Y0113052D01*
X0075563Y0111729D01*
X0075563Y0110297D01*
X0076111Y0108974D01*
X0077124Y0107961D01*
X0078447Y0107413D01*
X0079879Y0107413D01*
X0078239Y0107499D02*
X0031176Y0107499D01*
X0031176Y0109098D02*
X0076060Y0109098D01*
X0075563Y0110696D02*
X0031176Y0110696D01*
X0031176Y0112295D02*
X0075798Y0112295D01*
X0076322Y0113893D02*
X0031176Y0113893D01*
X0031176Y0115492D02*
X0074723Y0115492D01*
X0073125Y0117090D02*
X0031176Y0117090D01*
X0031176Y0118689D02*
X0071526Y0118689D01*
X0069927Y0120287D02*
X0031176Y0120287D01*
X0031176Y0121886D02*
X0068329Y0121886D01*
X0066730Y0123484D02*
X0031176Y0123484D01*
X0031176Y0125083D02*
X0062371Y0125083D01*
X0061107Y0126681D02*
X0031176Y0126681D01*
X0031176Y0128280D02*
X0060800Y0128280D01*
X0061223Y0129878D02*
X0031176Y0129878D01*
X0031176Y0131477D02*
X0063051Y0131477D01*
X0065749Y0131477D02*
X0097667Y0131477D01*
X0097667Y0133075D02*
X0031176Y0133075D01*
X0031176Y0134674D02*
X0097667Y0134674D01*
X0097667Y0136272D02*
X0090419Y0136272D01*
X0090877Y0136730D02*
X0091425Y0138053D01*
X0091425Y0139485D01*
X0090877Y0140808D01*
X0090025Y0141660D01*
X0090025Y0148083D01*
X0090286Y0148344D01*
X0090834Y0149667D01*
X0090834Y0151099D01*
X0090286Y0152422D01*
X0089273Y0153435D01*
X0087950Y0153983D01*
X0086518Y0153983D01*
X0085195Y0153435D01*
X0084182Y0152422D01*
X0083634Y0151099D01*
X0083634Y0149667D01*
X0084182Y0148344D01*
X0085195Y0147331D01*
X0085625Y0147153D01*
X0085625Y0141660D01*
X0084773Y0140808D01*
X0084225Y0139485D01*
X0084225Y0138053D01*
X0084773Y0136730D01*
X0085786Y0135717D01*
X0087109Y0135169D01*
X0088541Y0135169D01*
X0089864Y0135717D01*
X0090877Y0136730D01*
X0091349Y0137871D02*
X0097667Y0137871D01*
X0097667Y0139469D02*
X0091425Y0139469D01*
X0090617Y0141068D02*
X0097667Y0141068D01*
X0097667Y0142666D02*
X0090025Y0142666D01*
X0090025Y0144265D02*
X0097667Y0144265D01*
X0097667Y0145864D02*
X0090025Y0145864D01*
X0090025Y0147462D02*
X0097667Y0147462D01*
X0097667Y0149061D02*
X0090583Y0149061D01*
X0090834Y0150659D02*
X0097667Y0150659D01*
X0097667Y0152258D02*
X0090354Y0152258D01*
X0088257Y0153856D02*
X0097667Y0153856D01*
X0097667Y0155455D02*
X0031176Y0155455D01*
X0031176Y0157053D02*
X0097667Y0157053D01*
X0097667Y0158652D02*
X0031176Y0158652D01*
X0031176Y0160250D02*
X0097667Y0160250D01*
X0097667Y0161849D02*
X0031176Y0161849D01*
X0031176Y0163447D02*
X0097667Y0163447D01*
X0086211Y0153856D02*
X0031176Y0153856D01*
X0031176Y0152258D02*
X0084114Y0152258D01*
X0083634Y0150659D02*
X0031176Y0150659D01*
X0031176Y0149061D02*
X0083885Y0149061D01*
X0085064Y0147462D02*
X0031176Y0147462D01*
X0031176Y0145864D02*
X0085625Y0145864D01*
X0085625Y0144265D02*
X0031176Y0144265D01*
X0031176Y0142666D02*
X0085625Y0142666D01*
X0085033Y0141068D02*
X0031176Y0141068D01*
X0031176Y0139469D02*
X0084225Y0139469D01*
X0084300Y0137871D02*
X0031176Y0137871D01*
X0031176Y0136272D02*
X0085230Y0136272D01*
X0097667Y0129878D02*
X0067576Y0129878D01*
X0068157Y0128280D02*
X0097667Y0128280D01*
X0097667Y0126681D02*
X0069756Y0126681D01*
X0071354Y0125083D02*
X0097667Y0125083D01*
X0097667Y0123484D02*
X0072953Y0123484D01*
X0074552Y0121886D02*
X0097667Y0121886D01*
X0097667Y0120287D02*
X0076150Y0120287D01*
X0077749Y0118689D02*
X0097667Y0118689D01*
X0097667Y0117090D02*
X0079544Y0117090D01*
X0081142Y0115492D02*
X0097667Y0115492D01*
X0097667Y0113893D02*
X0081374Y0113893D01*
X0082529Y0112295D02*
X0097667Y0112295D01*
X0097667Y0110696D02*
X0082763Y0110696D01*
X0082267Y0109098D02*
X0097667Y0109098D01*
X0047666Y0057945D02*
X0031176Y0057945D01*
X0031176Y0056347D02*
X0047666Y0056347D01*
X0047666Y0054748D02*
X0031176Y0054748D01*
X0031176Y0053150D02*
X0047666Y0053150D01*
X0033829Y0035566D02*
X0031176Y0035566D01*
X0031176Y0033968D02*
X0032844Y0033968D01*
X0032844Y0032369D02*
X0031176Y0032369D01*
X0031176Y0030771D02*
X0032844Y0030771D01*
D21*
X0112940Y0056567D02*
X0112825Y0058651D01*
X0113068Y0058894D01*
X0113068Y0066607D01*
X0112940Y0056567D02*
X0153174Y0056567D01*
X0153342Y0056735D01*
X0189989Y0029567D02*
X0190530Y0029567D01*
X0193140Y0026958D01*
X0212825Y0026958D01*
X0213022Y0027155D01*
X0213612Y0027155D01*
X0213809Y0027352D01*
X0215384Y0024399D02*
X0213415Y0022430D01*
X0213415Y0020593D01*
X0209958Y0017136D01*
X0192858Y0017136D01*
X0226801Y0024399D02*
X0228376Y0022824D01*
X0240699Y0022824D01*
X0241545Y0021978D01*
X0241545Y0021564D01*
X0240600Y0020619D01*
X0240600Y0018041D01*
X0241545Y0021978D02*
X0243120Y0021978D01*
X0244671Y0020919D02*
X0251445Y0020919D01*
X0255858Y0017136D01*
X0250226Y0026564D02*
X0250226Y0026997D01*
X0257825Y0034596D01*
X0258558Y0044136D02*
X0267558Y0035136D01*
X0258558Y0044136D02*
X0258558Y0047736D01*
X0258558Y0064836D02*
X0267558Y0073836D01*
X0250226Y0026564D02*
X0229951Y0026564D01*
X0229163Y0027352D01*
X0350935Y0016604D02*
X0358179Y0016604D01*
X0358789Y0017214D01*
X0358789Y0022923D01*
X0358750Y0022962D01*
X0358750Y0024143D01*
X0357549Y0025344D01*
X0339614Y0146820D02*
X0339594Y0146840D01*
X0318730Y0146840D01*
D22*
X0315778Y0150777D02*
X0314437Y0149436D01*
X0314358Y0149436D01*
X0297258Y0132336D01*
X0267549Y0132336D01*
X0266959Y0132927D01*
X0266896Y0132864D01*
X0263612Y0132864D01*
X0263809Y0133060D01*
X0263809Y0136013D01*
X0263612Y0132864D02*
X0257510Y0132864D01*
X0254557Y0129911D01*
X0254360Y0129911D01*
X0253185Y0128736D01*
X0224439Y0128736D01*
X0221093Y0125389D01*
X0221093Y0124202D01*
X0220226Y0123336D01*
X0187458Y0123336D01*
X0190158Y0120636D02*
X0189258Y0119736D01*
X0183858Y0119736D01*
X0170337Y0133257D01*
X0154360Y0133257D01*
X0152539Y0131436D01*
X0152358Y0131436D01*
X0148758Y0127836D01*
X0141974Y0121052D01*
X0141368Y0121052D01*
X0140384Y0120068D01*
X0140384Y0116525D01*
X0134595Y0110736D01*
X0134358Y0110736D01*
X0134358Y0101736D01*
X0133820Y0101070D01*
X0143820Y0101070D02*
X0144258Y0101736D01*
X0144258Y0117936D01*
X0155958Y0129636D01*
X0166762Y0129636D01*
X0179163Y0117234D01*
X0179163Y0115738D01*
X0179360Y0115934D01*
X0187234Y0115934D01*
X0187458Y0115711D01*
X0187458Y0113633D01*
X0277785Y0113633D01*
X0277589Y0113239D01*
X0277589Y0110816D01*
X0286447Y0101958D01*
X0294715Y0101958D01*
X0302392Y0094281D01*
X0302392Y0092509D01*
X0302982Y0091919D01*
X0339400Y0091919D01*
X0341762Y0094281D01*
X0341959Y0094281D01*
X0344321Y0096643D01*
X0344715Y0096643D01*
X0345111Y0097039D01*
X0345111Y0101364D01*
X0340458Y0099036D02*
X0339990Y0098568D01*
X0339990Y0096643D01*
X0339203Y0095856D01*
X0338809Y0095856D01*
X0338612Y0095659D01*
X0320699Y0095659D01*
X0320658Y0095700D01*
X0320658Y0103536D01*
X0299058Y0125136D01*
X0278921Y0125333D01*
X0266658Y0128736D02*
X0258558Y0120636D01*
X0190158Y0120636D01*
X0184420Y0127133D02*
X0181744Y0127133D01*
X0181722Y0127155D01*
X0181722Y0128336D01*
X0172864Y0137194D01*
X0142352Y0137194D01*
X0138858Y0133700D01*
X0138858Y0133236D01*
X0107358Y0101736D01*
X0104658Y0101736D01*
X0103820Y0101070D01*
X0099258Y0103536D02*
X0099258Y0098136D01*
X0101058Y0096336D01*
X0109158Y0096336D01*
X0113658Y0100836D01*
X0113820Y0101070D01*
X0099258Y0103536D02*
X0130758Y0135036D01*
X0130942Y0135036D01*
X0136841Y0140934D01*
X0193140Y0140934D01*
X0193533Y0140541D01*
X0193533Y0139760D01*
X0200058Y0133236D01*
X0200037Y0133257D01*
X0207707Y0134241D02*
X0209281Y0132667D01*
X0218927Y0132667D01*
X0220305Y0134045D01*
X0220305Y0134241D01*
X0222470Y0136407D01*
X0223258Y0136407D01*
X0221486Y0131682D02*
X0219124Y0129320D01*
X0219124Y0127745D01*
X0218962Y0127583D01*
X0214458Y0127583D01*
X0221486Y0131682D02*
X0240778Y0131682D01*
X0241368Y0132273D01*
X0241368Y0132470D01*
X0246093Y0137194D01*
X0246093Y0152942D01*
X0245108Y0153927D01*
X0236644Y0153927D01*
X0236053Y0154517D01*
X0203376Y0154517D01*
X0203030Y0154666D01*
X0178965Y0154666D01*
X0178965Y0154712D01*
X0178967Y0154714D01*
X0163809Y0159045D02*
X0161841Y0157076D01*
X0157707Y0157076D01*
X0157267Y0156636D01*
X0130758Y0156636D01*
X0127158Y0160236D01*
X0124458Y0160236D01*
X0123820Y0161070D01*
X0117258Y0160236D02*
X0124458Y0153036D01*
X0156776Y0153036D01*
X0163809Y0159045D02*
X0246139Y0159045D01*
X0246289Y0159195D01*
X0264990Y0140494D01*
X0287234Y0140494D01*
X0292156Y0145415D01*
X0292156Y0153336D01*
X0293656Y0154836D01*
X0317958Y0154836D01*
X0324258Y0161136D01*
X0325111Y0161364D01*
X0315111Y0161364D02*
X0314358Y0161136D01*
X0309858Y0156636D01*
X0298061Y0156636D01*
X0298061Y0157099D01*
X0295121Y0160039D01*
X0315258Y0153036D02*
X0336858Y0153036D01*
X0344958Y0161136D01*
X0345111Y0161364D01*
X0347667Y0155895D02*
X0351764Y0159992D01*
X0351764Y0161136D01*
X0354858Y0161136D01*
X0355111Y0161364D01*
X0347667Y0155895D02*
X0346523Y0155895D01*
X0343355Y0152727D01*
X0340402Y0152727D01*
X0340384Y0152745D01*
X0340187Y0152745D01*
X0338219Y0150777D01*
X0315778Y0150777D01*
X0315258Y0153036D02*
X0301758Y0139536D01*
X0296105Y0139536D01*
X0290958Y0135936D02*
X0287825Y0139069D01*
X0287825Y0140344D01*
X0287674Y0140494D01*
X0287234Y0140494D01*
X0307158Y0130536D02*
X0326958Y0130536D01*
X0326993Y0130501D01*
X0351407Y0130501D01*
X0351407Y0153411D01*
X0351876Y0153879D01*
X0302195Y0126958D02*
X0300417Y0128736D01*
X0266658Y0128736D01*
X0260358Y0127836D02*
X0257118Y0124596D01*
X0255935Y0124596D01*
X0255829Y0124489D01*
X0228463Y0124489D01*
X0212658Y0117036D02*
X0289158Y0117036D01*
X0304458Y0101736D01*
X0305111Y0101364D01*
X0312558Y0101736D02*
X0292758Y0121536D01*
X0266658Y0121536D01*
X0302195Y0126761D02*
X0305541Y0123415D01*
X0305935Y0123415D01*
X0308307Y0125787D01*
X0332358Y0101736D01*
X0335058Y0101736D01*
X0335111Y0101364D01*
X0340458Y0099036D02*
X0340458Y0110300D01*
X0340581Y0110423D01*
X0358100Y0110423D01*
X0360069Y0108454D01*
X0360069Y0098415D01*
X0359790Y0098136D01*
X0359358Y0098136D01*
X0332358Y0071136D01*
X0314358Y0071136D01*
X0308058Y0064836D01*
X0307825Y0064596D01*
X0308058Y0063936D01*
X0308058Y0048636D01*
X0307825Y0048375D01*
X0298158Y0048636D02*
X0297825Y0048375D01*
X0298158Y0048636D02*
X0298158Y0063936D01*
X0297825Y0064596D01*
X0288258Y0063936D02*
X0287825Y0064596D01*
X0287358Y0064836D01*
X0281058Y0071136D01*
X0276558Y0071136D01*
X0273858Y0073836D01*
X0273858Y0081036D01*
X0262158Y0092736D01*
X0250318Y0092736D01*
X0227958Y0082278D02*
X0227333Y0082903D01*
X0227077Y0082903D01*
X0213671Y0096308D01*
X0210885Y0096308D01*
X0210858Y0096336D01*
X0196458Y0096336D01*
X0190158Y0086436D02*
X0197358Y0079236D01*
X0197825Y0078375D01*
X0200058Y0076536D01*
X0193758Y0070236D01*
X0193758Y0044136D01*
X0188358Y0038736D01*
X0179358Y0038736D01*
X0178967Y0038572D01*
X0186558Y0044136D02*
X0183858Y0046836D01*
X0148758Y0046836D01*
X0128958Y0027036D01*
X0128958Y0023436D01*
X0128061Y0023415D01*
X0119958Y0028836D02*
X0119958Y0048636D01*
X0116358Y0052236D01*
X0105819Y0052236D01*
X0105738Y0052155D01*
X0105738Y0053336D01*
X0104557Y0054517D01*
X0104557Y0070501D01*
X0104602Y0070546D01*
X0112825Y0058651D02*
X0113658Y0058536D01*
X0112825Y0045068D02*
X0112758Y0045036D01*
X0112758Y0023436D01*
X0112549Y0023415D01*
X0144045Y0023415D02*
X0144258Y0023436D01*
X0176658Y0023436D01*
X0194658Y0041436D01*
X0209058Y0041436D01*
X0215358Y0047736D01*
X0217158Y0047736D01*
X0217825Y0048375D01*
X0208158Y0048636D02*
X0207825Y0048375D01*
X0208158Y0048636D02*
X0208158Y0063936D01*
X0207825Y0064596D01*
X0210858Y0071136D02*
X0217158Y0064836D01*
X0217825Y0064596D01*
X0222558Y0068436D02*
X0219858Y0071136D01*
X0215358Y0071136D01*
X0208158Y0078336D01*
X0207825Y0078375D01*
X0207258Y0079236D01*
X0160458Y0126036D01*
X0157758Y0126036D01*
X0184420Y0127133D02*
X0204558Y0126936D01*
X0207707Y0134241D02*
X0207707Y0136013D01*
X0204754Y0138966D01*
X0212037Y0138572D02*
X0212037Y0141525D01*
X0207707Y0145856D01*
X0198258Y0145856D01*
X0198061Y0145659D01*
X0198258Y0145856D02*
X0118927Y0145856D01*
X0116959Y0147824D01*
X0116959Y0147932D01*
X0103820Y0161070D01*
X0104658Y0160236D01*
X0113820Y0161070D02*
X0114558Y0160236D01*
X0117258Y0160236D01*
X0153820Y0161070D02*
X0156322Y0163572D01*
X0251801Y0163572D01*
X0251801Y0160816D01*
X0254163Y0160816D01*
X0263612Y0151367D01*
X0302195Y0126958D02*
X0302195Y0126761D01*
X0328770Y0124399D02*
X0330738Y0122430D01*
X0331132Y0122430D01*
X0333494Y0120068D01*
X0333494Y0115147D01*
X0315111Y0101364D02*
X0314358Y0101736D01*
X0312558Y0101736D01*
X0294715Y0095436D02*
X0294715Y0093297D01*
X0299242Y0088769D01*
X0299636Y0088769D01*
X0300226Y0088178D01*
X0340778Y0088178D01*
X0346235Y0093636D01*
X0347658Y0093636D01*
X0354858Y0100836D01*
X0355111Y0101364D01*
X0294715Y0095436D02*
X0284658Y0095436D01*
X0288297Y0090147D02*
X0288258Y0090036D01*
X0288258Y0079236D01*
X0287825Y0078375D01*
X0278358Y0079236D02*
X0277825Y0078375D01*
X0278358Y0079236D02*
X0278358Y0090036D01*
X0278297Y0090147D01*
X0267825Y0078375D02*
X0267558Y0078336D01*
X0267558Y0073836D01*
X0258558Y0064836D02*
X0257825Y0064596D01*
X0257658Y0064836D01*
X0255858Y0064836D01*
X0257825Y0064596D02*
X0258558Y0063936D01*
X0277825Y0064596D02*
X0278358Y0063936D01*
X0288258Y0063936D02*
X0288258Y0048636D01*
X0287825Y0048375D01*
X0278358Y0048636D02*
X0277825Y0048375D01*
X0258558Y0048636D02*
X0257825Y0048375D01*
X0258558Y0047736D01*
X0257825Y0034596D02*
X0257658Y0034236D01*
X0267558Y0035136D02*
X0267825Y0034596D01*
X0273238Y0028808D02*
X0278358Y0033928D01*
X0278358Y0034236D01*
X0277998Y0034596D01*
X0277825Y0034596D01*
X0273238Y0028808D02*
X0273238Y0022883D01*
X0271722Y0021367D01*
X0285187Y0016840D02*
X0285600Y0017253D01*
X0296841Y0017253D01*
X0301226Y0021639D01*
X0302679Y0021639D01*
X0308229Y0014724D02*
X0310226Y0016722D01*
X0322274Y0016722D01*
X0322352Y0016801D01*
X0321558Y0017136D01*
X0308229Y0014724D02*
X0304048Y0014724D01*
X0285558Y0017136D02*
X0285187Y0016840D01*
X0256604Y0017037D02*
X0255858Y0017136D01*
X0251445Y0020919D02*
X0244179Y0020919D01*
X0244612Y0020919D02*
X0244671Y0020919D01*
X0234258Y0018036D02*
X0221658Y0018036D01*
X0220758Y0017136D01*
X0220620Y0016446D01*
X0192858Y0017136D02*
X0192037Y0016643D01*
X0190541Y0018139D01*
X0207825Y0034596D02*
X0208158Y0035136D01*
X0209958Y0035136D01*
X0216258Y0041436D01*
X0219858Y0041436D01*
X0222558Y0044136D01*
X0222558Y0068436D01*
X0210858Y0071136D02*
X0205458Y0071136D01*
X0200058Y0076536D01*
X0198258Y0078336D01*
X0197825Y0078375D01*
X0178967Y0077942D02*
X0175758Y0074736D01*
X0178458Y0077436D01*
X0178967Y0077942D01*
X0190158Y0086436D02*
X0153258Y0086436D01*
X0210970Y0086914D02*
X0211084Y0086801D01*
X0218958Y0085589D02*
X0218958Y0085536D01*
X0227958Y0082278D02*
X0227958Y0079236D01*
X0227825Y0078375D01*
X0236958Y0079236D02*
X0237825Y0078375D01*
X0236958Y0079236D02*
X0206358Y0109836D01*
X0187458Y0109836D01*
X0189006Y0131879D02*
X0184281Y0136604D01*
X0180541Y0136604D01*
X0197825Y0064596D02*
X0198258Y0063936D01*
X0198258Y0048636D01*
X0197825Y0048375D01*
X0188358Y0044136D02*
X0186558Y0044136D01*
X0317825Y0034596D02*
X0320994Y0031427D01*
X0320994Y0026820D01*
X0322608Y0025206D01*
X0331781Y0025206D01*
X0331959Y0025029D01*
X0331959Y0023297D01*
X0350358Y0017136D02*
X0350935Y0016604D01*
X0354858Y0059436D02*
X0355108Y0059438D01*
D23*
X0278358Y0063936D02*
X0278358Y0048636D01*
X0258558Y0048636D02*
X0258558Y0063936D01*
D24*
X0257825Y0064596D02*
X0253002Y0069419D01*
X0253002Y0071052D01*
X0252643Y0071412D01*
X0226433Y0071412D01*
X0222558Y0074736D01*
X0222558Y0081936D01*
X0222470Y0082023D01*
X0222470Y0084261D01*
X0221486Y0084261D01*
X0220600Y0085147D01*
X0220482Y0085147D01*
X0220093Y0085536D01*
X0218958Y0085536D01*
X0218958Y0085589D02*
X0217746Y0086801D01*
X0211084Y0086801D01*
X0213809Y0027352D02*
X0229163Y0027352D01*
X0226801Y0024399D02*
X0215384Y0024399D01*
D25*
X0234258Y0018036D03*
X0240600Y0018041D03*
X0271722Y0021367D03*
X0302679Y0021639D03*
X0304048Y0014724D03*
X0331959Y0023297D03*
X0357549Y0025344D03*
X0189989Y0029567D03*
X0188358Y0044136D03*
X0153342Y0056735D03*
X0146087Y0067619D03*
X0126211Y0076564D03*
X0104602Y0070546D03*
X0113068Y0066607D03*
X0076801Y0073415D03*
X0072667Y0046643D03*
X0119958Y0028836D03*
X0170161Y0080614D03*
X0153258Y0086436D03*
X0196458Y0096336D03*
X0210970Y0086914D03*
X0250318Y0092736D03*
X0284658Y0095436D03*
X0333494Y0115147D03*
X0328770Y0124399D03*
X0307158Y0130536D03*
X0290958Y0135936D03*
X0296105Y0139536D03*
X0318730Y0146840D03*
X0339614Y0146820D03*
X0351876Y0153879D03*
X0295121Y0160039D03*
X0263612Y0151367D03*
X0263809Y0136013D03*
X0260358Y0127836D03*
X0266658Y0121536D03*
X0278921Y0125333D03*
X0228463Y0124489D03*
X0214458Y0127583D03*
X0204558Y0126936D03*
X0200058Y0133236D03*
X0189006Y0131879D03*
X0180541Y0136604D03*
X0204754Y0138966D03*
X0212037Y0138572D03*
X0223258Y0136407D03*
X0187458Y0123336D03*
X0212658Y0117036D03*
X0187458Y0109836D03*
X0157758Y0126036D03*
X0148758Y0127836D03*
X0092746Y0126564D03*
X0064400Y0128139D03*
X0087825Y0138769D03*
X0087234Y0150383D03*
X0044358Y0150336D03*
X0079163Y0111013D03*
X0053770Y0102942D03*
X0156776Y0153036D03*
X0178965Y0154666D03*
D26*
X0170077Y0080698D02*
X0156919Y0080698D01*
X0147476Y0071255D01*
X0146087Y0071255D01*
X0143730Y0073612D01*
X0129163Y0073612D01*
X0126211Y0076564D01*
X0077392Y0076564D01*
X0146087Y0071255D02*
X0146087Y0067619D01*
X0170161Y0080614D02*
X0173339Y0077436D01*
X0178458Y0077436D01*
X0170161Y0080614D02*
X0170077Y0080698D01*
D27*
X0077392Y0076564D02*
X0076801Y0077155D01*
X0076801Y0073415D01*
D28*
X0243120Y0021978D02*
X0244179Y0020919D01*
D29*
X0174124Y0018080D03*
D30*
X0174183Y0018139D01*
X0190541Y0018139D01*
D31*
X0079163Y0111013D02*
X0079163Y0114360D01*
X0077785Y0115738D01*
X0077589Y0115738D01*
X0065187Y0128139D01*
X0064400Y0128139D01*
X0087825Y0138769D02*
X0087825Y0149793D01*
X0087234Y0150383D01*
M02*
