%
M48
M72
T01C0.02400
T02C0.02756
T03C0.03150
T04C0.03200
T05C0.03543
T06C0.03937
T07C0.09843
%
T01
X119958Y28836
X72667Y46643
X113068Y66607
X104602Y70546
X126211Y76564
X146087Y67619
X153342Y56735
X188358Y44136
X189989Y29567
X234258Y18036
X240600Y18041
X271722Y21367
X302679Y21639
X304048Y14724
X331959Y23297
X357549Y25344
X210970Y86914
X196458Y96336
X187458Y109836
X212658Y117036
X228463Y124489
X214458Y127583
X204558Y126936
X200058Y133236
X189006Y131879
X180541Y136604
X204754Y138966
X212037Y138572
X223258Y136407
X260358Y127836
X266658Y121536
X278921Y125333
X290958Y135936
X296105Y139536
X307158Y130536
X328770Y124399
X333494Y115147
X284658Y95436
X250318Y92736
X170161Y80614
X153258Y86436
X76801Y73415
X53770Y102942
X79163Y111013
X92746Y126564
X64400Y128139
X87825Y138769
X87234Y150383
X44358Y150336
X148758Y127836
X157758Y126036
X187458Y123336
X263809Y136013
X263612Y151367
X295121Y160039
X318730Y146840
X339614Y146820
X351876Y153879
X178965Y154666
X156776Y153036
T02
X174124Y18080
T03
X278297Y90147
X288297Y90147
X305111Y101364
X315111Y101364
X325111Y101364
X335111Y101364
X345111Y101364
X355111Y101364
X355111Y161364
X345111Y161364
X335111Y161364
X325111Y161364
X315111Y161364
X305111Y161364
X153820Y161070
X143820Y161070
X133820Y161070
X123820Y161070
X113820Y161070
X103820Y161070
X103820Y101070
X113820Y101070
X123820Y101070
X133820Y101070
X143820Y101070
X153820Y101070
T04
X197825Y78375
X207825Y78375
X217825Y78375
X227825Y78375
X237825Y78375
X247825Y78375
X257825Y78375
X267825Y78375
X277825Y78375
X287825Y78375
X297825Y78375
X307825Y78375
X317825Y78375
X327825Y78375
X327825Y64596
X317825Y64596
X307825Y64596
X297825Y64596
X287825Y64596
X277825Y64596
X267825Y64596
X257825Y64596
X247825Y64596
X237825Y64596
X227825Y64596
X217825Y64596
X207825Y64596
X197825Y64596
X197825Y48375
X207825Y48375
X217825Y48375
X227825Y48375
X237825Y48375
X247825Y48375
X257825Y48375
X267825Y48375
X277825Y48375
X287825Y48375
X297825Y48375
X307825Y48375
X317825Y48375
X327825Y48375
X327825Y34596
X317825Y34596
X307825Y34596
X297825Y34596
X287825Y34596
X277825Y34596
X267825Y34596
X257825Y34596
X247825Y34596
X237825Y34596
X227825Y34596
X217825Y34596
X207825Y34596
X197825Y34596
T05
X355108Y49438
X355108Y59438
X355108Y69438
T06
X60167Y55580
X52234Y55659
X52234Y45816
X60187Y45797
T07
X41565Y27037
X41565Y74438
M30
