G75*
%MOIN*%
%OFA0B0*%
%FSLAX25Y25*%
%IPPOS*%
%LPD*%
%AMOC8*
5,1,8,0,0,1.08239X$1,22.5*
%
%ADD10R,0.05950X0.05950*%
%ADD11R,0.08674X0.09461*%
%ADD12R,0.09461X0.08674*%
%ADD13R,0.06706X0.02400*%
%ADD14C,0.06000*%
%ADD15C,0.06343*%
%ADD16R,0.14643X0.14643*%
%ADD17R,0.06737X0.06737*%
%ADD18R,0.09461X0.20485*%
%ADD19R,0.02769X0.04737*%
%ADD20R,0.04146X0.07690*%
%ADD21R,0.03753X0.07690*%
%ADD22C,0.04800*%
%ADD23R,0.05156X0.05156*%
D10*
X0278297Y0090147D03*
X0288297Y0090147D03*
X0305111Y0101364D03*
X0315111Y0101364D03*
X0325111Y0101364D03*
X0335111Y0101364D03*
X0345111Y0101364D03*
X0355111Y0101364D03*
X0355111Y0161364D03*
X0345111Y0161364D03*
X0335111Y0161364D03*
X0325111Y0161364D03*
X0315111Y0161364D03*
X0305111Y0161364D03*
X0153820Y0161070D03*
X0143820Y0161070D03*
X0133820Y0161070D03*
X0123820Y0161070D03*
X0113820Y0161070D03*
X0103820Y0161070D03*
X0103820Y0101070D03*
X0113820Y0101070D03*
X0123820Y0101070D03*
X0133820Y0101070D03*
X0143820Y0101070D03*
X0153820Y0101070D03*
D11*
X0169321Y0110619D03*
X0197077Y0111997D03*
X0169321Y0124202D03*
X0197077Y0125580D03*
X0252982Y0126958D03*
X0252982Y0113375D03*
X0290384Y0111997D03*
X0316959Y0112588D03*
X0316959Y0126171D03*
X0290384Y0125580D03*
X0355148Y0127352D03*
X0355148Y0140934D03*
X0177392Y0077745D03*
X0161053Y0078336D03*
X0161053Y0064753D03*
X0177392Y0064163D03*
X0145305Y0059832D03*
X0128770Y0058848D03*
X0145305Y0046249D03*
X0128770Y0045265D03*
X0161250Y0050186D03*
X0177392Y0049596D03*
X0177392Y0036013D03*
X0161250Y0036604D03*
X0094518Y0048808D03*
X0080935Y0048612D03*
X0081526Y0036407D03*
X0081526Y0022824D03*
X0040778Y0044871D03*
X0040778Y0058454D03*
X0080935Y0062194D03*
X0094518Y0062391D03*
X0076604Y0081682D03*
X0065187Y0081289D03*
X0042746Y0090147D03*
X0065187Y0094871D03*
X0076604Y0095265D03*
X0042746Y0103730D03*
X0044124Y0129320D03*
X0044124Y0142903D03*
X0107313Y0143887D03*
X0107313Y0130304D03*
X0141171Y0130108D03*
X0141171Y0116525D03*
D12*
X0122077Y0114950D03*
X0108494Y0114950D03*
X0071486Y0110816D03*
X0057904Y0110816D03*
X0106722Y0086604D03*
X0120305Y0086604D03*
X0132313Y0086801D03*
X0145896Y0086801D03*
X0184675Y0018297D03*
X0198258Y0018297D03*
X0213219Y0018100D03*
X0226801Y0018100D03*
X0249833Y0017706D03*
X0263415Y0017706D03*
X0279951Y0017509D03*
X0293533Y0017509D03*
X0311644Y0017706D03*
X0325226Y0017706D03*
X0338809Y0017509D03*
X0352392Y0017509D03*
X0355935Y0034832D03*
X0342352Y0034832D03*
X0339203Y0084241D03*
X0352785Y0084241D03*
X0052392Y0157470D03*
X0038809Y0157470D03*
D13*
X0055274Y0141417D03*
X0055274Y0138917D03*
X0055274Y0136417D03*
X0055274Y0133917D03*
X0055274Y0131417D03*
X0055274Y0128917D03*
X0055274Y0126417D03*
X0055274Y0123917D03*
X0079037Y0123917D03*
X0079037Y0126417D03*
X0079037Y0128917D03*
X0079037Y0131417D03*
X0079037Y0133917D03*
X0079037Y0136417D03*
X0079037Y0138917D03*
X0079037Y0141417D03*
D14*
X0197825Y0080975D02*
X0197825Y0075775D01*
X0207825Y0075775D02*
X0207825Y0080975D01*
X0217825Y0080975D02*
X0217825Y0075775D01*
X0227825Y0075775D02*
X0227825Y0080975D01*
X0237825Y0080975D02*
X0237825Y0075775D01*
X0247825Y0075775D02*
X0247825Y0080975D01*
X0257825Y0080975D02*
X0257825Y0075775D01*
X0267825Y0075775D02*
X0267825Y0080975D01*
X0277825Y0080975D02*
X0277825Y0075775D01*
X0287825Y0075775D02*
X0287825Y0080975D01*
X0297825Y0080975D02*
X0297825Y0075775D01*
X0307825Y0075775D02*
X0307825Y0080975D01*
X0317825Y0080975D02*
X0317825Y0075775D01*
X0327825Y0075775D02*
X0327825Y0080975D01*
X0327825Y0067196D02*
X0327825Y0061996D01*
X0317825Y0061996D02*
X0317825Y0067196D01*
X0307825Y0067196D02*
X0307825Y0061996D01*
X0297825Y0061996D02*
X0297825Y0067196D01*
X0287825Y0067196D02*
X0287825Y0061996D01*
X0277825Y0061996D02*
X0277825Y0067196D01*
X0267825Y0067196D02*
X0267825Y0061996D01*
X0257825Y0061996D02*
X0257825Y0067196D01*
X0247825Y0067196D02*
X0247825Y0061996D01*
X0237825Y0061996D02*
X0237825Y0067196D01*
X0227825Y0067196D02*
X0227825Y0061996D01*
X0217825Y0061996D02*
X0217825Y0067196D01*
X0207825Y0067196D02*
X0207825Y0061996D01*
X0197825Y0061996D02*
X0197825Y0067196D01*
X0197825Y0050975D02*
X0197825Y0045775D01*
X0207825Y0045775D02*
X0207825Y0050975D01*
X0217825Y0050975D02*
X0217825Y0045775D01*
X0227825Y0045775D02*
X0227825Y0050975D01*
X0237825Y0050975D02*
X0237825Y0045775D01*
X0247825Y0045775D02*
X0247825Y0050975D01*
X0257825Y0050975D02*
X0257825Y0045775D01*
X0267825Y0045775D02*
X0267825Y0050975D01*
X0277825Y0050975D02*
X0277825Y0045775D01*
X0287825Y0045775D02*
X0287825Y0050975D01*
X0297825Y0050975D02*
X0297825Y0045775D01*
X0307825Y0045775D02*
X0307825Y0050975D01*
X0317825Y0050975D02*
X0317825Y0045775D01*
X0327825Y0045775D02*
X0327825Y0050975D01*
X0327825Y0037196D02*
X0327825Y0031996D01*
X0317825Y0031996D02*
X0317825Y0037196D01*
X0307825Y0037196D02*
X0307825Y0031996D01*
X0297825Y0031996D02*
X0297825Y0037196D01*
X0287825Y0037196D02*
X0287825Y0031996D01*
X0277825Y0031996D02*
X0277825Y0037196D01*
X0267825Y0037196D02*
X0267825Y0031996D01*
X0257825Y0031996D02*
X0257825Y0037196D01*
X0247825Y0037196D02*
X0247825Y0031996D01*
X0237825Y0031996D02*
X0237825Y0037196D01*
X0227825Y0037196D02*
X0227825Y0031996D01*
X0217825Y0031996D02*
X0217825Y0037196D01*
X0207825Y0037196D02*
X0207825Y0031996D01*
X0197825Y0031996D02*
X0197825Y0037196D01*
D15*
X0355108Y0049438D03*
X0355108Y0059438D03*
X0355108Y0069438D03*
D16*
X0041565Y0027037D03*
X0041565Y0074438D03*
D17*
X0052234Y0055659D03*
X0060167Y0055580D03*
X0060187Y0045797D03*
X0052234Y0045816D03*
D18*
X0112549Y0021446D03*
X0127904Y0021446D03*
X0144045Y0021446D03*
D19*
X0071880Y0149989D03*
X0067943Y0149989D03*
X0069911Y0156682D03*
D20*
X0121132Y0144399D03*
X0128652Y0144360D03*
X0163848Y0149320D03*
X0171368Y0149281D03*
X0189833Y0149320D03*
X0197352Y0149281D03*
X0212864Y0150108D03*
X0220384Y0150068D03*
X0236289Y0151289D03*
X0243809Y0151249D03*
X0275266Y0149320D03*
X0282785Y0149281D03*
X0303022Y0147745D03*
X0310541Y0147706D03*
X0332746Y0140068D03*
X0340266Y0140029D03*
D21*
X0336447Y0129635D03*
X0306722Y0137312D03*
X0278967Y0138887D03*
X0239990Y0140856D03*
X0216565Y0139675D03*
X0193533Y0138887D03*
X0167549Y0138887D03*
X0124833Y0133966D03*
D22*
X0148758Y0127836D03*
X0157758Y0126036D03*
X0180541Y0136604D03*
X0189006Y0131879D03*
X0200058Y0133236D03*
X0204558Y0126936D03*
X0214458Y0127583D03*
X0228463Y0124489D03*
X0212658Y0117036D03*
X0187458Y0123336D03*
X0187458Y0109836D03*
X0196458Y0096336D03*
X0210970Y0086914D03*
X0250318Y0092736D03*
X0284658Y0095436D03*
X0333494Y0115147D03*
X0328770Y0124399D03*
X0307158Y0130536D03*
X0290958Y0135936D03*
X0296105Y0139536D03*
X0318730Y0146840D03*
X0339614Y0146820D03*
X0351876Y0153879D03*
X0295121Y0160039D03*
X0263612Y0151367D03*
X0263809Y0136013D03*
X0260358Y0127836D03*
X0266658Y0121536D03*
X0278921Y0125333D03*
X0223258Y0136407D03*
X0212037Y0138572D03*
X0204754Y0138966D03*
X0178965Y0154666D03*
X0156776Y0153036D03*
X0087234Y0150383D03*
X0087825Y0138769D03*
X0064400Y0128139D03*
X0092746Y0126564D03*
X0079163Y0111013D03*
X0053770Y0102942D03*
X0126211Y0076564D03*
X0104602Y0070546D03*
X0113068Y0066607D03*
X0146087Y0067619D03*
X0153342Y0056735D03*
X0188358Y0044136D03*
X0189989Y0029567D03*
X0234258Y0018036D03*
X0240600Y0018041D03*
X0271722Y0021367D03*
X0302679Y0021639D03*
X0304048Y0014724D03*
X0331959Y0023297D03*
X0357549Y0025344D03*
X0170161Y0080614D03*
X0153258Y0086436D03*
X0076801Y0073415D03*
X0072667Y0046643D03*
X0119958Y0028836D03*
X0044358Y0150336D03*
D23*
X0174124Y0018080D03*
M02*
