G75*
%MOIN*%
%OFA0B0*%
%FSLAX25Y25*%
%IPPOS*%
%LPD*%
%AMOC8*
5,1,8,0,0,1.08239X$1,22.5*
%
%ADD10R,0.05950X0.05950*%
%ADD11C,0.06000*%
%ADD12C,0.06343*%
%ADD13R,0.08674X0.09461*%
%ADD14R,0.14643X0.14643*%
%ADD15R,0.06737X0.06737*%
%ADD16R,0.09461X0.24422*%
%ADD17R,0.08674X0.13792*%
%ADD18R,0.08674X0.14580*%
%ADD19R,0.06706X0.12611*%
%ADD20C,0.04800*%
%ADD21R,0.05156X0.05156*%
D10*
X0278297Y0090147D03*
X0288297Y0090147D03*
X0305111Y0101364D03*
X0315111Y0101364D03*
X0325111Y0101364D03*
X0335111Y0101364D03*
X0345111Y0101364D03*
X0355111Y0101364D03*
X0355111Y0161364D03*
X0345111Y0161364D03*
X0335111Y0161364D03*
X0325111Y0161364D03*
X0315111Y0161364D03*
X0305111Y0161364D03*
X0153820Y0161070D03*
X0143820Y0161070D03*
X0133820Y0161070D03*
X0123820Y0161070D03*
X0113820Y0161070D03*
X0103820Y0161070D03*
X0103820Y0101070D03*
X0113820Y0101070D03*
X0123820Y0101070D03*
X0133820Y0101070D03*
X0143820Y0101070D03*
X0153820Y0101070D03*
D11*
X0197825Y0080975D02*
X0197825Y0075775D01*
X0207825Y0075775D02*
X0207825Y0080975D01*
X0217825Y0080975D02*
X0217825Y0075775D01*
X0227825Y0075775D02*
X0227825Y0080975D01*
X0237825Y0080975D02*
X0237825Y0075775D01*
X0247825Y0075775D02*
X0247825Y0080975D01*
X0257825Y0080975D02*
X0257825Y0075775D01*
X0267825Y0075775D02*
X0267825Y0080975D01*
X0277825Y0080975D02*
X0277825Y0075775D01*
X0287825Y0075775D02*
X0287825Y0080975D01*
X0297825Y0080975D02*
X0297825Y0075775D01*
X0307825Y0075775D02*
X0307825Y0080975D01*
X0317825Y0080975D02*
X0317825Y0075775D01*
X0327825Y0075775D02*
X0327825Y0080975D01*
X0327825Y0067196D02*
X0327825Y0061996D01*
X0317825Y0061996D02*
X0317825Y0067196D01*
X0307825Y0067196D02*
X0307825Y0061996D01*
X0297825Y0061996D02*
X0297825Y0067196D01*
X0287825Y0067196D02*
X0287825Y0061996D01*
X0277825Y0061996D02*
X0277825Y0067196D01*
X0267825Y0067196D02*
X0267825Y0061996D01*
X0257825Y0061996D02*
X0257825Y0067196D01*
X0247825Y0067196D02*
X0247825Y0061996D01*
X0237825Y0061996D02*
X0237825Y0067196D01*
X0227825Y0067196D02*
X0227825Y0061996D01*
X0217825Y0061996D02*
X0217825Y0067196D01*
X0207825Y0067196D02*
X0207825Y0061996D01*
X0197825Y0061996D02*
X0197825Y0067196D01*
X0197825Y0050975D02*
X0197825Y0045775D01*
X0207825Y0045775D02*
X0207825Y0050975D01*
X0217825Y0050975D02*
X0217825Y0045775D01*
X0227825Y0045775D02*
X0227825Y0050975D01*
X0237825Y0050975D02*
X0237825Y0045775D01*
X0247825Y0045775D02*
X0247825Y0050975D01*
X0257825Y0050975D02*
X0257825Y0045775D01*
X0267825Y0045775D02*
X0267825Y0050975D01*
X0277825Y0050975D02*
X0277825Y0045775D01*
X0287825Y0045775D02*
X0287825Y0050975D01*
X0297825Y0050975D02*
X0297825Y0045775D01*
X0307825Y0045775D02*
X0307825Y0050975D01*
X0317825Y0050975D02*
X0317825Y0045775D01*
X0327825Y0045775D02*
X0327825Y0050975D01*
X0327825Y0037196D02*
X0327825Y0031996D01*
X0317825Y0031996D02*
X0317825Y0037196D01*
X0307825Y0037196D02*
X0307825Y0031996D01*
X0297825Y0031996D02*
X0297825Y0037196D01*
X0287825Y0037196D02*
X0287825Y0031996D01*
X0277825Y0031996D02*
X0277825Y0037196D01*
X0267825Y0037196D02*
X0267825Y0031996D01*
X0257825Y0031996D02*
X0257825Y0037196D01*
X0247825Y0037196D02*
X0247825Y0031996D01*
X0237825Y0031996D02*
X0237825Y0037196D01*
X0227825Y0037196D02*
X0227825Y0031996D01*
X0217825Y0031996D02*
X0217825Y0037196D01*
X0207825Y0037196D02*
X0207825Y0031996D01*
X0197825Y0031996D02*
X0197825Y0037196D01*
D12*
X0355108Y0049438D03*
X0355108Y0059438D03*
X0355108Y0069438D03*
D13*
X0112825Y0058651D03*
X0112825Y0045068D03*
D14*
X0041565Y0027037D03*
X0041565Y0074438D03*
D15*
X0052234Y0055659D03*
X0060167Y0055580D03*
X0060187Y0045797D03*
X0052234Y0045816D03*
D16*
X0112549Y0023415D03*
X0128061Y0023415D03*
X0144045Y0023415D03*
D17*
X0178967Y0038572D03*
D18*
X0178967Y0077942D03*
D19*
X0192037Y0016643D03*
X0220620Y0016446D03*
X0256604Y0017037D03*
X0285187Y0016840D03*
X0322352Y0016801D03*
X0350935Y0016604D03*
D20*
X0331959Y0023297D03*
X0357549Y0025344D03*
X0304048Y0014724D03*
X0302679Y0021639D03*
X0271722Y0021367D03*
X0240600Y0018041D03*
X0234258Y0018036D03*
X0189989Y0029567D03*
X0188358Y0044136D03*
X0153342Y0056735D03*
X0146087Y0067619D03*
X0126211Y0076564D03*
X0104602Y0070546D03*
X0113068Y0066607D03*
X0076801Y0073415D03*
X0072667Y0046643D03*
X0119958Y0028836D03*
X0170161Y0080614D03*
X0153258Y0086436D03*
X0196458Y0096336D03*
X0210970Y0086914D03*
X0250318Y0092736D03*
X0284658Y0095436D03*
X0333494Y0115147D03*
X0328770Y0124399D03*
X0307158Y0130536D03*
X0290958Y0135936D03*
X0296105Y0139536D03*
X0318730Y0146840D03*
X0339614Y0146820D03*
X0351876Y0153879D03*
X0295121Y0160039D03*
X0263612Y0151367D03*
X0263809Y0136013D03*
X0260358Y0127836D03*
X0266658Y0121536D03*
X0278921Y0125333D03*
X0228463Y0124489D03*
X0214458Y0127583D03*
X0204558Y0126936D03*
X0200058Y0133236D03*
X0189006Y0131879D03*
X0180541Y0136604D03*
X0204754Y0138966D03*
X0212037Y0138572D03*
X0223258Y0136407D03*
X0187458Y0123336D03*
X0212658Y0117036D03*
X0187458Y0109836D03*
X0157758Y0126036D03*
X0148758Y0127836D03*
X0092746Y0126564D03*
X0064400Y0128139D03*
X0087825Y0138769D03*
X0087234Y0150383D03*
X0044358Y0150336D03*
X0079163Y0111013D03*
X0053770Y0102942D03*
X0156776Y0153036D03*
X0178965Y0154666D03*
D21*
X0174124Y0018080D03*
M02*
