%
M48
M72
T01C0.02400
T02C0.02756
T03C0.03150
T04C0.03200
T05C0.03543
T06C0.03937
T07C0.09843
%
T01
X119958Y28836
X72667Y46643
X113068Y66607
X104602Y70546
X145258Y67336
X153342Y56735
X188358Y44136
X189989Y29567
X234258Y18036
X240600Y18041
X276388Y24596
X302679Y21639
X304048Y14724
X331959Y23297
X357549Y25344
X187333Y78324
X153258Y86436
X204258Y102336
X209258Y104336
X227258Y99336
X236467Y98088
X233258Y87336
X291258Y107336
X298455Y107529
X326329Y110328
X337258Y111706
X351258Y110336
X341313Y122352
X333258Y122336
X321258Y128336
X340211Y137509
X289258Y151336
X259258Y150336
X225258Y141336
X216258Y145336
X221258Y135336
X239258Y129336
X223258Y123336
X238258Y112336
X257258Y114336
X257258Y119336
X189258Y123336
X189258Y115336
X163258Y135336
X99258Y147336
X87234Y150383
X87825Y138769
X88967Y127391
X64400Y128139
X94085Y115462
X79163Y111013
X53770Y102942
X44358Y150336
X323258Y88336
X328258Y87336
T02
X285404Y104576
X299124Y128277
X278967Y129478
X191998Y146387
X139085Y146033
X128415Y76584
X137136Y39911
X155620Y19537
X175226Y19419
T03
X278297Y90147
X288297Y90147
X305111Y101364
X315111Y101364
X325111Y101364
X335111Y101364
X345111Y101364
X355111Y101364
X355111Y161364
X345111Y161364
X335111Y161364
X325111Y161364
X315111Y161364
X305111Y161364
X153820Y161070
X143820Y161070
X133820Y161070
X123820Y161070
X113820Y161070
X103820Y161070
X103820Y101070
X113820Y101070
X123820Y101070
X133820Y101070
X143820Y101070
X153820Y101070
T04
X197825Y78375
X207825Y78375
X217825Y78375
X227825Y78375
X237825Y78375
X247825Y78375
X257825Y78375
X267825Y78375
X277825Y78375
X287825Y78375
X297825Y78375
X307825Y78375
X317825Y78375
X327825Y78375
X327825Y64596
X317825Y64596
X307825Y64596
X297825Y64596
X287825Y64596
X277825Y64596
X267825Y64596
X257825Y64596
X247825Y64596
X237825Y64596
X227825Y64596
X217825Y64596
X207825Y64596
X197825Y64596
X197825Y48375
X207825Y48375
X217825Y48375
X227825Y48375
X237825Y48375
X247825Y48375
X257825Y48375
X267825Y48375
X277825Y48375
X287825Y48375
X297825Y48375
X307825Y48375
X317825Y48375
X327825Y48375
X327825Y34596
X317825Y34596
X307825Y34596
X297825Y34596
X287825Y34596
X277825Y34596
X267825Y34596
X257825Y34596
X247825Y34596
X237825Y34596
X227825Y34596
X217825Y34596
X207825Y34596
X197825Y34596
T05
X355108Y49438
X355108Y59438
X355108Y69438
T06
X60167Y55580
X52234Y55659
X52234Y45816
X60187Y45797
T07
X41565Y27037
X41565Y74438
M30
