G75*
%MOIN*%
%OFA0B0*%
%FSLAX25Y25*%
%IPPOS*%
%LPD*%
%AMOC8*
5,1,8,0,0,1.08239X$1,22.5*
%
%ADD10R,0.05150X0.05150*%
%ADD11R,0.07874X0.08661*%
%ADD12R,0.08661X0.07874*%
%ADD13R,0.05906X0.01600*%
%ADD14C,0.05200*%
%ADD15C,0.05543*%
%ADD16R,0.13843X0.13843*%
%ADD17R,0.05937X0.05937*%
%ADD18R,0.08661X0.19685*%
%ADD19R,0.02953X0.03937*%
%ADD20R,0.03346X0.06890*%
%ADD21R,0.02953X0.06890*%
%ADD22C,0.01000*%
%ADD23C,0.04000*%
%ADD24C,0.02400*%
%ADD25C,0.01969*%
%ADD26C,0.04000*%
%ADD27C,0.01200*%
%ADD28C,0.04356*%
%ADD29C,0.03200*%
%ADD30C,0.01500*%
%ADD31C,0.01575*%
%ADD32OC8,0.04356*%
D10*
X0278297Y0090147D03*
X0288297Y0090147D03*
X0305111Y0101364D03*
X0315111Y0101364D03*
X0325111Y0101364D03*
X0335111Y0101364D03*
X0345111Y0101364D03*
X0355111Y0101364D03*
X0355111Y0161364D03*
X0345111Y0161364D03*
X0335111Y0161364D03*
X0325111Y0161364D03*
X0315111Y0161364D03*
X0305111Y0161364D03*
X0153820Y0161070D03*
X0143820Y0161070D03*
X0133820Y0161070D03*
X0123820Y0161070D03*
X0113820Y0161070D03*
X0103820Y0161070D03*
X0103820Y0101070D03*
X0113820Y0101070D03*
X0123820Y0101070D03*
X0133820Y0101070D03*
X0143820Y0101070D03*
X0153820Y0101070D03*
D11*
X0198455Y0111407D03*
X0216033Y0110659D03*
X0245561Y0108966D03*
X0267156Y0109930D03*
X0245561Y0122549D03*
X0267156Y0123513D03*
X0266683Y0137352D03*
X0245758Y0137352D03*
X0245758Y0150934D03*
X0266683Y0150934D03*
X0207707Y0154005D03*
X0207707Y0140423D03*
X0198455Y0124989D03*
X0216033Y0124241D03*
X0108809Y0134517D03*
X0108809Y0148100D03*
X0044124Y0142903D03*
X0044124Y0129320D03*
X0042746Y0103730D03*
X0065187Y0094871D03*
X0076604Y0095265D03*
X0042746Y0090147D03*
X0065187Y0081289D03*
X0076604Y0081682D03*
X0080935Y0062194D03*
X0094518Y0062391D03*
X0094518Y0048808D03*
X0080935Y0048612D03*
X0081526Y0036407D03*
X0081526Y0022824D03*
X0040778Y0044871D03*
X0040778Y0058454D03*
X0128770Y0058848D03*
X0145305Y0059832D03*
X0161053Y0064753D03*
X0177392Y0064163D03*
X0177392Y0077745D03*
X0161053Y0078336D03*
X0161250Y0050186D03*
X0177392Y0049596D03*
X0177392Y0036013D03*
X0161250Y0036604D03*
X0145305Y0046249D03*
X0128770Y0045265D03*
D12*
X0184675Y0018297D03*
X0198258Y0018297D03*
X0213219Y0018100D03*
X0226801Y0018100D03*
X0249833Y0017706D03*
X0263415Y0017706D03*
X0279951Y0017509D03*
X0293533Y0017509D03*
X0311644Y0017706D03*
X0325226Y0017706D03*
X0338809Y0017509D03*
X0352392Y0017509D03*
X0355935Y0034832D03*
X0342352Y0034832D03*
X0339203Y0084241D03*
X0352785Y0084241D03*
X0145896Y0086801D03*
X0132313Y0086801D03*
X0120305Y0086604D03*
X0106722Y0086604D03*
X0071486Y0110816D03*
X0057904Y0110816D03*
X0108494Y0114950D03*
X0122077Y0114950D03*
X0052392Y0157470D03*
X0038809Y0157470D03*
D13*
X0055274Y0141417D03*
X0055274Y0138917D03*
X0055274Y0136417D03*
X0055274Y0133917D03*
X0055274Y0131417D03*
X0055274Y0128917D03*
X0055274Y0126417D03*
X0055274Y0123917D03*
X0079037Y0123917D03*
X0079037Y0126417D03*
X0079037Y0128917D03*
X0079037Y0131417D03*
X0079037Y0133917D03*
X0079037Y0136417D03*
X0079037Y0138917D03*
X0079037Y0141417D03*
D14*
X0197825Y0080975D02*
X0197825Y0075775D01*
X0207825Y0075775D02*
X0207825Y0080975D01*
X0217825Y0080975D02*
X0217825Y0075775D01*
X0227825Y0075775D02*
X0227825Y0080975D01*
X0237825Y0080975D02*
X0237825Y0075775D01*
X0247825Y0075775D02*
X0247825Y0080975D01*
X0257825Y0080975D02*
X0257825Y0075775D01*
X0267825Y0075775D02*
X0267825Y0080975D01*
X0277825Y0080975D02*
X0277825Y0075775D01*
X0287825Y0075775D02*
X0287825Y0080975D01*
X0297825Y0080975D02*
X0297825Y0075775D01*
X0307825Y0075775D02*
X0307825Y0080975D01*
X0317825Y0080975D02*
X0317825Y0075775D01*
X0327825Y0075775D02*
X0327825Y0080975D01*
X0327825Y0067196D02*
X0327825Y0061996D01*
X0317825Y0061996D02*
X0317825Y0067196D01*
X0307825Y0067196D02*
X0307825Y0061996D01*
X0297825Y0061996D02*
X0297825Y0067196D01*
X0287825Y0067196D02*
X0287825Y0061996D01*
X0277825Y0061996D02*
X0277825Y0067196D01*
X0267825Y0067196D02*
X0267825Y0061996D01*
X0257825Y0061996D02*
X0257825Y0067196D01*
X0247825Y0067196D02*
X0247825Y0061996D01*
X0237825Y0061996D02*
X0237825Y0067196D01*
X0227825Y0067196D02*
X0227825Y0061996D01*
X0217825Y0061996D02*
X0217825Y0067196D01*
X0207825Y0067196D02*
X0207825Y0061996D01*
X0197825Y0061996D02*
X0197825Y0067196D01*
X0197825Y0050975D02*
X0197825Y0045775D01*
X0207825Y0045775D02*
X0207825Y0050975D01*
X0217825Y0050975D02*
X0217825Y0045775D01*
X0227825Y0045775D02*
X0227825Y0050975D01*
X0237825Y0050975D02*
X0237825Y0045775D01*
X0247825Y0045775D02*
X0247825Y0050975D01*
X0257825Y0050975D02*
X0257825Y0045775D01*
X0267825Y0045775D02*
X0267825Y0050975D01*
X0277825Y0050975D02*
X0277825Y0045775D01*
X0287825Y0045775D02*
X0287825Y0050975D01*
X0297825Y0050975D02*
X0297825Y0045775D01*
X0307825Y0045775D02*
X0307825Y0050975D01*
X0317825Y0050975D02*
X0317825Y0045775D01*
X0327825Y0045775D02*
X0327825Y0050975D01*
X0327825Y0037196D02*
X0327825Y0031996D01*
X0317825Y0031996D02*
X0317825Y0037196D01*
X0307825Y0037196D02*
X0307825Y0031996D01*
X0297825Y0031996D02*
X0297825Y0037196D01*
X0287825Y0037196D02*
X0287825Y0031996D01*
X0277825Y0031996D02*
X0277825Y0037196D01*
X0267825Y0037196D02*
X0267825Y0031996D01*
X0257825Y0031996D02*
X0257825Y0037196D01*
X0247825Y0037196D02*
X0247825Y0031996D01*
X0237825Y0031996D02*
X0237825Y0037196D01*
X0227825Y0037196D02*
X0227825Y0031996D01*
X0217825Y0031996D02*
X0217825Y0037196D01*
X0207825Y0037196D02*
X0207825Y0031996D01*
X0197825Y0031996D02*
X0197825Y0037196D01*
D15*
X0355108Y0049438D03*
X0355108Y0059438D03*
X0355108Y0069438D03*
D16*
X0041565Y0074438D03*
X0041565Y0027037D03*
D17*
X0052234Y0045816D03*
X0060187Y0045797D03*
X0060167Y0055580D03*
X0052234Y0055659D03*
D18*
X0112549Y0021446D03*
X0127904Y0021446D03*
X0144045Y0021446D03*
D19*
X0072274Y0149989D03*
X0067549Y0149989D03*
X0069911Y0156682D03*
D20*
X0125994Y0136308D03*
X0133514Y0136269D03*
X0145758Y0136249D03*
X0153278Y0136210D03*
X0168652Y0136820D03*
X0176171Y0136781D03*
X0175187Y0118612D03*
X0167667Y0118651D03*
X0285719Y0129852D03*
X0293238Y0129812D03*
X0306093Y0129360D03*
X0313612Y0129320D03*
X0326211Y0130029D03*
X0333730Y0129989D03*
X0346919Y0137962D03*
X0354439Y0137923D03*
D21*
X0330030Y0140423D03*
X0309911Y0139753D03*
X0289537Y0140245D03*
X0350620Y0127529D03*
X0172470Y0147214D03*
X0149577Y0146643D03*
X0129813Y0146702D03*
X0171368Y0108218D03*
D22*
X0163022Y0090738D02*
X0215384Y0090738D01*
X0215541Y0090580D01*
X0216230Y0090580D01*
X0222470Y0084340D01*
X0222470Y0081748D01*
X0222538Y0081680D01*
X0222538Y0043880D01*
X0218058Y0039636D01*
X0218058Y0035136D01*
X0217825Y0034596D01*
X0227058Y0034236D02*
X0227058Y0032436D01*
X0213558Y0018936D01*
X0213219Y0018100D01*
X0212658Y0018036D01*
X0198258Y0018036D01*
X0198258Y0018297D01*
X0188358Y0018036D02*
X0184758Y0018036D01*
X0184675Y0018297D01*
X0200620Y0024989D02*
X0202785Y0027155D01*
X0202785Y0037982D01*
X0206240Y0041436D01*
X0209058Y0041436D01*
X0211758Y0044136D01*
X0211758Y0067536D01*
X0217158Y0072936D01*
X0217158Y0078336D01*
X0217825Y0078375D01*
X0207258Y0064836D02*
X0200958Y0071136D01*
X0173058Y0071136D01*
X0165858Y0078336D01*
X0161053Y0078336D01*
X0153258Y0086436D02*
X0146058Y0086436D01*
X0145896Y0086801D01*
X0134478Y0084515D02*
X0132558Y0086436D01*
X0132313Y0086801D01*
X0131658Y0086436D01*
X0120858Y0086436D02*
X0120305Y0086604D01*
X0119958Y0087336D01*
X0118743Y0087941D01*
X0108258Y0088236D02*
X0107358Y0087336D01*
X0106722Y0086604D01*
X0104602Y0084483D01*
X0104602Y0070546D01*
X0094758Y0062136D02*
X0094518Y0062391D01*
X0080935Y0062194D02*
X0080358Y0062136D01*
X0070458Y0062136D01*
X0070458Y0086436D01*
X0069558Y0087336D01*
X0059658Y0087336D01*
X0056958Y0090036D01*
X0043458Y0090036D01*
X0042746Y0090147D01*
X0065058Y0095436D02*
X0065187Y0094871D01*
X0065058Y0095436D02*
X0065058Y0115236D01*
X0065187Y0115365D01*
X0065187Y0118690D01*
X0065974Y0119478D01*
X0066959Y0119478D01*
X0070817Y0123336D01*
X0078558Y0123336D01*
X0079037Y0123917D01*
X0083058Y0128736D02*
X0083958Y0127836D01*
X0083958Y0102636D01*
X0076758Y0095436D01*
X0076604Y0095265D01*
X0106722Y0086604D02*
X0107358Y0086436D01*
X0065187Y0081289D02*
X0065058Y0081036D01*
X0065058Y0068436D01*
X0052458Y0055836D01*
X0052234Y0055659D01*
X0049439Y0058454D01*
X0040778Y0058454D01*
X0038058Y0056736D01*
X0050658Y0056736D02*
X0051558Y0055836D01*
X0052234Y0055659D01*
X0051014Y0056879D01*
X0060167Y0055580D02*
X0060558Y0055836D01*
X0066858Y0062136D01*
X0070458Y0062136D01*
X0078558Y0050436D02*
X0080358Y0048636D01*
X0080935Y0048612D01*
X0081258Y0048636D01*
X0080935Y0048612D02*
X0081258Y0047736D01*
X0082158Y0046836D01*
X0081526Y0046204D01*
X0081526Y0036407D01*
X0082158Y0035136D01*
X0083058Y0024336D02*
X0083058Y0022536D01*
X0081526Y0022824D01*
X0083058Y0020736D01*
X0083058Y0022536D01*
X0112549Y0021446D02*
X0112758Y0021636D01*
X0112758Y0027036D01*
X0128058Y0042336D01*
X0128058Y0045036D01*
X0128770Y0045265D01*
X0128958Y0045936D01*
X0145158Y0045936D02*
X0145305Y0046249D01*
X0145158Y0045936D02*
X0145158Y0027936D01*
X0144045Y0021446D01*
X0146880Y0018612D01*
X0146880Y0015738D01*
X0147077Y0015541D01*
X0144045Y0021446D02*
X0144258Y0021636D01*
X0145158Y0022536D01*
X0145158Y0025659D01*
X0145158Y0027936D01*
X0127904Y0021446D02*
X0127158Y0021636D01*
X0119958Y0028836D01*
X0161250Y0036604D02*
X0161358Y0036936D01*
X0167658Y0036936D01*
X0173958Y0043236D01*
X0182058Y0043236D01*
X0186558Y0047736D01*
X0197358Y0047736D01*
X0197825Y0048375D01*
X0188358Y0044136D02*
X0197358Y0035136D01*
X0197825Y0034596D01*
X0177558Y0035136D02*
X0177392Y0036013D01*
X0176658Y0035136D01*
X0176658Y0049536D02*
X0161358Y0049536D01*
X0161250Y0050186D01*
X0161358Y0050436D01*
X0161358Y0063936D01*
X0161053Y0064753D01*
X0177392Y0064163D02*
X0177558Y0063936D01*
X0177558Y0050436D01*
X0177392Y0049596D01*
X0176658Y0049536D01*
X0207258Y0064836D02*
X0207825Y0064596D01*
X0257825Y0078375D02*
X0257904Y0078454D01*
X0257825Y0078375D02*
X0257658Y0079236D01*
X0257825Y0078375D02*
X0258558Y0078336D01*
X0277458Y0064836D02*
X0277825Y0064596D01*
X0277825Y0048375D02*
X0277458Y0047736D01*
X0267558Y0035136D02*
X0267825Y0034596D01*
X0258558Y0035136D02*
X0257825Y0034596D01*
X0276388Y0024596D02*
X0275954Y0017136D01*
X0278358Y0017136D01*
X0279951Y0017509D01*
X0279258Y0017136D01*
X0278358Y0017136D01*
X0275954Y0017136D02*
X0263958Y0017136D01*
X0263415Y0017706D01*
X0251358Y0018036D02*
X0251358Y0018129D01*
X0251358Y0018036D02*
X0250458Y0018036D01*
X0249833Y0017706D01*
X0249558Y0017136D01*
X0240767Y0018129D02*
X0240640Y0018001D01*
X0240640Y0018041D01*
X0240659Y0018060D01*
X0234258Y0018036D02*
X0227058Y0018036D01*
X0226801Y0018100D01*
X0227058Y0034236D02*
X0227825Y0034596D01*
X0292758Y0018036D02*
X0293533Y0017509D01*
X0292758Y0018036D02*
X0302679Y0021639D01*
X0304048Y0014724D02*
X0311142Y0017204D01*
X0311644Y0017706D01*
X0311658Y0018036D01*
X0325158Y0018036D02*
X0325226Y0017706D01*
X0326058Y0017136D01*
X0331821Y0017136D01*
X0331959Y0017274D01*
X0331959Y0023297D01*
X0331821Y0017136D02*
X0338658Y0017136D01*
X0338809Y0017509D01*
X0352392Y0017509D02*
X0352392Y0025304D01*
X0352333Y0025364D01*
X0357530Y0025364D02*
X0357549Y0025344D01*
X0355935Y0034832D02*
X0355758Y0035136D01*
X0355758Y0048636D01*
X0355108Y0049438D01*
X0342258Y0035136D02*
X0327858Y0035136D01*
X0327825Y0034596D01*
X0342258Y0035136D02*
X0342352Y0034832D01*
X0327825Y0064596D02*
X0327858Y0064836D01*
X0338658Y0075636D01*
X0338658Y0083736D01*
X0339203Y0084241D01*
X0352785Y0084241D02*
X0353058Y0083736D01*
X0353058Y0072036D01*
X0354858Y0070236D01*
X0355108Y0069438D01*
X0163022Y0090738D02*
X0161420Y0089136D01*
X0161358Y0089136D01*
X0121758Y0112844D02*
X0121758Y0114336D01*
X0122077Y0114950D01*
X0121758Y0115236D01*
X0108494Y0114950D02*
X0108258Y0115236D01*
X0088967Y0127391D02*
X0087293Y0129064D01*
X0087293Y0131269D01*
X0087126Y0131436D01*
X0079458Y0131436D01*
X0079037Y0131417D01*
X0078558Y0131436D01*
X0075858Y0131436D01*
X0079037Y0128917D02*
X0079458Y0128736D01*
X0083058Y0128736D01*
X0079458Y0134136D02*
X0079037Y0133917D01*
X0079458Y0134136D02*
X0092958Y0134136D01*
X0107358Y0130536D02*
X0107898Y0132019D01*
X0108809Y0134517D01*
X0081258Y0143136D02*
X0079458Y0141336D01*
X0079037Y0141417D01*
X0078558Y0141336D01*
X0070458Y0141336D01*
X0068658Y0143136D01*
X0068658Y0149436D01*
X0067549Y0149989D01*
X0072258Y0150336D02*
X0072274Y0149989D01*
X0072258Y0149436D01*
X0069911Y0156682D02*
X0069558Y0156636D01*
X0052458Y0156636D01*
X0052392Y0157470D01*
X0038809Y0157470D02*
X0038809Y0153533D01*
X0038058Y0156636D02*
X0038809Y0157470D01*
X0044358Y0150336D02*
X0044358Y0143136D01*
X0044124Y0142903D01*
X0043458Y0142236D01*
X0051558Y0134136D01*
X0055158Y0134136D01*
X0055274Y0133917D01*
X0055158Y0131436D02*
X0046158Y0131436D01*
X0044358Y0129636D01*
X0044124Y0129320D01*
X0043458Y0128736D01*
X0044124Y0129320D02*
X0043458Y0129636D01*
X0034675Y0129636D02*
X0034675Y0129517D01*
X0034478Y0129517D01*
X0034478Y0129911D01*
X0055158Y0128736D02*
X0055158Y0126936D01*
X0055274Y0126417D01*
X0055274Y0123917D02*
X0055158Y0123336D01*
X0055158Y0121536D01*
X0043458Y0109836D01*
X0043458Y0104436D01*
X0042746Y0103730D01*
X0057904Y0110816D02*
X0058758Y0111636D01*
X0058758Y0114336D01*
X0055158Y0128736D02*
X0055274Y0128917D01*
X0055274Y0131417D02*
X0055158Y0131436D01*
X0133820Y0161070D02*
X0134358Y0160236D01*
X0305111Y0161364D02*
X0305358Y0161136D01*
X0094518Y0048808D02*
X0093858Y0048636D01*
X0052458Y0045936D02*
X0052234Y0045816D01*
X0051558Y0045036D01*
X0049819Y0043297D01*
X0047077Y0043297D01*
X0045502Y0044871D01*
X0040778Y0044871D01*
X0038058Y0044136D01*
D23*
X0072667Y0046643D03*
X0113068Y0066607D03*
X0104602Y0070546D03*
X0145258Y0067336D03*
X0153342Y0056735D03*
X0188358Y0044136D03*
X0189989Y0029567D03*
X0234258Y0018036D03*
X0240600Y0018041D03*
X0276388Y0024596D03*
X0302679Y0021639D03*
X0304048Y0014724D03*
X0331959Y0023297D03*
X0357549Y0025344D03*
X0187333Y0078324D03*
X0153258Y0086436D03*
X0204258Y0102336D03*
X0209258Y0104336D03*
X0227258Y0099336D03*
X0236467Y0098088D03*
X0233258Y0087336D03*
X0291258Y0107336D03*
X0298455Y0107529D03*
X0326329Y0110328D03*
X0337258Y0111706D03*
X0351258Y0110336D03*
X0341313Y0122352D03*
X0333258Y0122336D03*
X0321258Y0128336D03*
X0340211Y0137509D03*
X0289258Y0151336D03*
X0259258Y0150336D03*
X0225258Y0141336D03*
X0216258Y0145336D03*
X0221258Y0135336D03*
X0239258Y0129336D03*
X0223258Y0123336D03*
X0238258Y0112336D03*
X0257258Y0114336D03*
X0257258Y0119336D03*
X0189258Y0123336D03*
X0189258Y0115336D03*
X0163258Y0135336D03*
X0099258Y0147336D03*
X0087234Y0150383D03*
X0087825Y0138769D03*
X0088967Y0127391D03*
X0064400Y0128139D03*
X0094085Y0115462D03*
X0079163Y0111013D03*
X0053770Y0102942D03*
X0044358Y0150336D03*
X0323258Y0088336D03*
X0328258Y0087336D03*
X0119958Y0028836D03*
D24*
X0078558Y0050436D02*
X0074765Y0046643D01*
X0072667Y0046643D01*
X0053770Y0102942D02*
X0053770Y0106682D01*
X0057904Y0110816D01*
D25*
X0053573Y0034241D02*
X0069321Y0018493D01*
X0069321Y0014753D01*
X0069911Y0014163D01*
X0092156Y0014163D01*
X0094518Y0016525D01*
X0094518Y0016722D01*
X0100158Y0022362D01*
X0100158Y0024921D01*
X0102785Y0027549D01*
X0102785Y0061545D01*
X0107847Y0066607D01*
X0113068Y0066607D01*
X0113068Y0072871D01*
X0114400Y0074202D01*
X0114400Y0075777D01*
X0119518Y0080895D01*
X0119518Y0085816D01*
X0120305Y0086604D01*
X0120858Y0086436D02*
X0131658Y0086436D01*
X0118743Y0087941D02*
X0118743Y0103241D01*
X0118947Y0103241D01*
X0118947Y0107962D01*
X0121758Y0107962D01*
X0121758Y0112844D01*
X0122077Y0114950D02*
X0121880Y0115147D01*
X0043458Y0129636D02*
X0034675Y0129636D01*
X0034478Y0129911D02*
X0031758Y0127190D01*
X0031758Y0038736D01*
X0033890Y0036604D01*
X0053573Y0036604D01*
X0053573Y0034241D01*
X0060187Y0035108D02*
X0063809Y0031486D01*
X0066565Y0031486D01*
X0075423Y0022627D01*
X0081329Y0022627D01*
X0081526Y0022824D01*
X0081722Y0023021D01*
X0091368Y0023021D01*
X0094124Y0025777D01*
X0094124Y0026564D01*
X0094518Y0026958D01*
X0094518Y0048808D01*
X0102785Y0061545D02*
X0102195Y0062136D01*
X0094758Y0062136D01*
X0060187Y0045797D02*
X0060187Y0035108D01*
X0153401Y0029905D02*
X0154419Y0029832D01*
X0170758Y0029832D01*
X0171211Y0029832D02*
X0177392Y0036013D01*
X0185659Y0036013D01*
X0189989Y0031683D01*
X0189989Y0029567D01*
X0153401Y0029905D02*
X0153342Y0056735D01*
X0240600Y0018041D02*
X0246624Y0018060D01*
X0246722Y0018159D01*
X0249380Y0018159D01*
X0249833Y0017706D01*
X0352333Y0025364D02*
X0357530Y0025364D01*
X0034478Y0129911D02*
X0034478Y0153533D01*
X0038809Y0153533D01*
D26*
X0108958Y0122815D02*
X0110285Y0124143D01*
X0121270Y0124143D01*
X0124124Y0126997D01*
X0146132Y0126997D01*
X0168770Y0126997D01*
X0174715Y0126997D01*
X0175108Y0127391D01*
X0108958Y0122815D02*
X0108958Y0116686D01*
X0178258Y0078336D02*
X0187333Y0078324D01*
X0145561Y0067175D02*
X0145258Y0066871D01*
X0145258Y0060336D01*
X0145305Y0059832D02*
X0138829Y0059832D01*
X0137470Y0058474D01*
X0137470Y0040245D01*
X0137136Y0039911D01*
X0128770Y0058848D02*
X0128848Y0058927D01*
X0128848Y0061367D01*
X0128415Y0061801D01*
X0128415Y0076584D01*
X0155620Y0019537D02*
X0168514Y0019458D01*
X0175187Y0019458D01*
X0175226Y0019419D01*
X0183553Y0019419D01*
X0184675Y0018297D01*
X0184636Y0018336D01*
X0240767Y0018129D02*
X0251358Y0018129D01*
D27*
X0200620Y0024989D02*
X0185699Y0024989D01*
X0185679Y0024970D01*
X0181998Y0024970D01*
X0179557Y0027411D01*
X0146910Y0027411D01*
X0145158Y0025659D01*
X0170758Y0029832D02*
X0171211Y0029832D01*
X0128770Y0045265D02*
X0123711Y0050324D01*
X0122844Y0050324D01*
X0122451Y0050718D01*
X0122451Y0078434D01*
X0124124Y0080501D01*
X0152057Y0080501D01*
X0161085Y0089136D01*
X0161358Y0089136D01*
X0154258Y0101336D02*
X0153820Y0101070D01*
X0146258Y0113336D02*
X0134258Y0101336D01*
X0133820Y0101070D01*
X0146258Y0113336D02*
X0177258Y0113336D01*
X0183258Y0119336D01*
X0190258Y0119336D01*
X0195258Y0124336D01*
X0198258Y0124336D01*
X0198455Y0124989D01*
X0189258Y0123336D02*
X0176258Y0136336D01*
X0176171Y0136781D01*
X0163258Y0135336D02*
X0154258Y0135336D01*
X0153278Y0136210D01*
X0138258Y0136336D02*
X0138258Y0145206D01*
X0139085Y0146033D01*
X0154258Y0160336D02*
X0160258Y0154336D01*
X0207258Y0154336D01*
X0207707Y0154005D01*
X0208258Y0153336D01*
X0216258Y0145336D01*
X0208258Y0140336D02*
X0207707Y0140423D01*
X0208258Y0140336D02*
X0211258Y0140336D01*
X0227258Y0124336D01*
X0227258Y0099336D01*
X0223258Y0098336D02*
X0230258Y0091336D01*
X0234258Y0091336D01*
X0237258Y0088336D01*
X0237258Y0079336D01*
X0237825Y0078375D01*
X0253258Y0081336D02*
X0253258Y0074336D01*
X0256258Y0071336D01*
X0260258Y0071336D01*
X0263258Y0068336D01*
X0263258Y0060336D01*
X0266258Y0057336D01*
X0280258Y0057336D01*
X0287258Y0064336D01*
X0287825Y0064596D01*
X0276258Y0071336D02*
X0310258Y0071336D01*
X0313258Y0068336D01*
X0313258Y0060336D01*
X0318258Y0055336D01*
X0321258Y0055336D01*
X0327258Y0049336D01*
X0327825Y0048375D01*
X0329258Y0041336D02*
X0305258Y0041336D01*
X0298258Y0048336D01*
X0297825Y0048375D01*
X0329258Y0041336D02*
X0345258Y0057336D01*
X0345258Y0087336D01*
X0349258Y0091336D01*
X0349258Y0103336D01*
X0351258Y0105336D01*
X0351258Y0110336D01*
X0339104Y0109596D02*
X0339104Y0105489D01*
X0339258Y0105336D01*
X0339258Y0098336D01*
X0328258Y0087336D01*
X0323258Y0088336D02*
X0320258Y0091336D01*
X0320258Y0104336D01*
X0326329Y0110328D01*
X0331053Y0109930D02*
X0331053Y0112194D01*
X0330207Y0114104D01*
X0323022Y0114104D01*
X0322648Y0114025D01*
X0295817Y0114025D01*
X0295876Y0111505D01*
X0291707Y0107336D01*
X0291258Y0107336D01*
X0298455Y0107529D02*
X0300167Y0109241D01*
X0300167Y0110560D01*
X0300640Y0111033D01*
X0310344Y0111033D01*
X0314026Y0107352D01*
X0315089Y0107352D01*
X0315111Y0107329D01*
X0315111Y0101364D01*
X0300258Y0098336D02*
X0313258Y0085336D01*
X0321258Y0085336D01*
X0327258Y0079336D01*
X0327825Y0078375D01*
X0317825Y0078375D02*
X0317258Y0078336D01*
X0299258Y0096336D01*
X0285258Y0096336D01*
X0279258Y0102336D01*
X0279258Y0111336D01*
X0267258Y0123336D01*
X0267156Y0123513D01*
X0261258Y0120336D02*
X0261258Y0118336D01*
X0263258Y0116336D01*
X0271258Y0116336D01*
X0277258Y0110336D01*
X0277258Y0101336D01*
X0284258Y0094336D01*
X0292258Y0094336D01*
X0307258Y0079336D01*
X0307825Y0078375D01*
X0297825Y0078375D02*
X0297258Y0079336D01*
X0291258Y0085336D01*
X0275258Y0085336D01*
X0252258Y0108336D01*
X0246258Y0108336D01*
X0245561Y0108966D01*
X0241258Y0115336D02*
X0238258Y0112336D01*
X0241258Y0115336D02*
X0256258Y0115336D01*
X0257258Y0114336D01*
X0261258Y0110336D01*
X0266258Y0110336D01*
X0267156Y0109930D01*
X0281258Y0103336D02*
X0281258Y0126198D01*
X0281258Y0127186D01*
X0278967Y0129478D01*
X0281270Y0126210D02*
X0281258Y0126198D01*
X0292258Y0130336D02*
X0293238Y0129812D01*
X0297589Y0129812D01*
X0299124Y0128277D01*
X0313612Y0129320D02*
X0314258Y0128336D01*
X0321258Y0128336D01*
X0333258Y0129336D02*
X0333258Y0122336D01*
X0341313Y0122352D02*
X0341333Y0122371D01*
X0346722Y0122371D01*
X0350620Y0126269D01*
X0350620Y0127529D01*
X0351258Y0127336D01*
X0333730Y0129989D02*
X0333258Y0129336D01*
X0340384Y0137336D02*
X0340211Y0137509D01*
X0340384Y0137336D02*
X0347258Y0137336D01*
X0346919Y0137962D01*
X0330258Y0141336D02*
X0330030Y0140423D01*
X0330258Y0141336D02*
X0330258Y0147336D01*
X0344258Y0161336D01*
X0345111Y0161364D01*
X0335111Y0161364D02*
X0334258Y0161336D01*
X0313258Y0140336D01*
X0310258Y0140336D01*
X0309911Y0139753D01*
X0290258Y0140336D02*
X0289537Y0140245D01*
X0290258Y0140336D02*
X0290258Y0147336D01*
X0304258Y0161336D01*
X0305111Y0161364D01*
X0289258Y0151336D02*
X0267258Y0151336D01*
X0266683Y0150934D01*
X0266258Y0151336D01*
X0260258Y0157336D01*
X0241258Y0157336D01*
X0225258Y0141336D01*
X0221258Y0135336D02*
X0221258Y0133336D01*
X0232258Y0122336D01*
X0232258Y0096336D01*
X0243258Y0085336D01*
X0243258Y0053336D01*
X0247258Y0049336D01*
X0247825Y0048375D01*
X0273258Y0074336D02*
X0276258Y0071336D01*
X0273258Y0074336D02*
X0273258Y0081336D01*
X0269258Y0085336D01*
X0258258Y0085336D01*
X0258258Y0091033D01*
X0256427Y0092864D01*
X0255443Y0092864D01*
X0252411Y0095895D01*
X0252411Y0100482D01*
X0252274Y0100619D01*
X0241093Y0100619D01*
X0238297Y0103415D01*
X0238297Y0105297D01*
X0234258Y0109336D01*
X0234258Y0136336D01*
X0241258Y0143336D01*
X0250258Y0143336D01*
X0255258Y0138336D01*
X0266258Y0138336D01*
X0266683Y0137352D01*
X0261258Y0120336D02*
X0246258Y0135336D01*
X0246258Y0137336D01*
X0245758Y0137352D01*
X0239258Y0129336D02*
X0245258Y0123336D01*
X0245561Y0122549D01*
X0246258Y0122336D01*
X0254258Y0122336D01*
X0257258Y0119336D01*
X0223258Y0123336D02*
X0216258Y0123336D01*
X0216033Y0124241D01*
X0209258Y0125336D02*
X0209258Y0104336D01*
X0210258Y0100336D02*
X0215258Y0105336D01*
X0215258Y0110336D01*
X0216033Y0110659D01*
X0199258Y0111336D02*
X0198455Y0111407D01*
X0199258Y0111336D02*
X0199258Y0102336D01*
X0203258Y0098336D01*
X0223258Y0098336D01*
X0222258Y0096336D02*
X0231258Y0087336D01*
X0233258Y0087336D01*
X0236467Y0098088D02*
X0253258Y0081336D01*
X0222258Y0096336D02*
X0202258Y0096336D01*
X0189258Y0109336D01*
X0189258Y0115336D01*
X0209258Y0125336D02*
X0192258Y0142336D01*
X0192258Y0146127D01*
X0191998Y0146387D01*
X0154258Y0160336D02*
X0153820Y0161070D01*
X0134358Y0160858D02*
X0134085Y0161131D01*
X0133820Y0161070D02*
X0134258Y0160336D01*
X0134358Y0160236D02*
X0134358Y0160858D01*
X0104258Y0160336D02*
X0103820Y0161070D01*
X0090258Y0156336D02*
X0099258Y0147336D01*
X0102530Y0141820D02*
X0108809Y0148100D01*
X0097077Y0141663D02*
X0095604Y0143136D01*
X0081258Y0143136D01*
X0087825Y0138769D02*
X0098061Y0138769D01*
X0098061Y0137234D01*
X0102470Y0132824D01*
X0107093Y0132824D01*
X0107898Y0132019D01*
X0095640Y0130993D02*
X0095640Y0125482D01*
X0087884Y0117726D01*
X0087884Y0090659D01*
X0087766Y0090541D01*
X0087766Y0090304D01*
X0092726Y0085344D01*
X0105463Y0085344D01*
X0106722Y0086604D01*
X0107358Y0085968D01*
X0087258Y0066336D02*
X0077258Y0076336D01*
X0077258Y0081336D01*
X0076604Y0081682D01*
X0087258Y0066336D02*
X0087258Y0055336D01*
X0081258Y0049336D01*
X0080935Y0048612D01*
X0128258Y0059336D02*
X0128770Y0058848D01*
X0145258Y0060336D02*
X0145305Y0059832D01*
X0145258Y0060336D02*
X0145258Y0067336D01*
X0177392Y0077745D02*
X0178258Y0078336D01*
X0204258Y0102336D02*
X0206258Y0100336D01*
X0210258Y0100336D01*
X0281258Y0103336D02*
X0286258Y0098336D01*
X0300258Y0098336D01*
X0331053Y0109930D02*
X0334951Y0106033D01*
X0334951Y0101524D01*
X0335111Y0101364D01*
X0339104Y0109596D02*
X0337258Y0111442D01*
X0337258Y0111706D01*
X0259258Y0150336D02*
X0246258Y0150336D01*
X0245758Y0150934D01*
X0138258Y0136336D02*
X0134258Y0136336D01*
X0133514Y0136269D01*
X0102530Y0141820D02*
X0101998Y0141820D01*
X0101841Y0141663D01*
X0097077Y0141663D01*
X0087825Y0138769D02*
X0085472Y0136417D01*
X0079037Y0136417D01*
X0079027Y0136407D01*
X0065187Y0136407D01*
X0065187Y0128927D01*
X0064400Y0128139D01*
X0063622Y0128917D01*
X0055274Y0128917D01*
X0092958Y0133675D02*
X0095640Y0130993D01*
X0092958Y0133675D02*
X0092958Y0134136D01*
X0087187Y0150336D02*
X0072258Y0150336D01*
X0087187Y0150336D02*
X0087234Y0150383D01*
X0090258Y0156336D02*
X0070258Y0156336D01*
X0069911Y0156682D01*
X0045258Y0150336D02*
X0044358Y0150336D01*
X0071486Y0110816D02*
X0078967Y0110816D01*
X0079163Y0111013D01*
D28*
X0128415Y0076584D03*
X0137136Y0039911D03*
X0155620Y0019537D03*
X0175226Y0019419D03*
X0285404Y0104576D03*
X0299124Y0128277D03*
X0191998Y0146387D03*
X0139085Y0146033D03*
D29*
X0145758Y0136236D02*
X0145758Y0127371D01*
X0146132Y0126997D01*
X0124124Y0126997D02*
X0124124Y0134438D01*
X0125994Y0136308D01*
X0168758Y0136236D02*
X0168758Y0127009D01*
X0168770Y0126997D01*
X0174715Y0126997D02*
X0174715Y0122489D01*
X0175896Y0121308D01*
X0175896Y0119320D01*
X0175187Y0118612D01*
X0108258Y0115236D02*
X0094311Y0115236D01*
X0094085Y0115462D01*
X0285404Y0104576D02*
X0285994Y0105167D01*
X0285994Y0117352D01*
X0306486Y0117352D01*
X0306093Y0117745D01*
X0306093Y0129360D01*
X0326211Y0130029D02*
X0326211Y0117962D01*
X0326821Y0117352D01*
X0358199Y0117352D01*
X0359085Y0118907D01*
X0359085Y0138336D01*
X0358927Y0138434D01*
X0356093Y0138493D01*
X0354439Y0137923D01*
X0326821Y0117352D02*
X0306486Y0117352D01*
X0285994Y0117352D02*
X0285719Y0117627D01*
X0285719Y0129852D01*
D30*
X0232008Y0083336D02*
X0221658Y0093686D01*
X0133108Y0093686D01*
X0129658Y0097136D01*
X0129658Y0105186D01*
X0142308Y0117836D01*
X0167608Y0117836D01*
X0167667Y0118651D01*
X0174508Y0118986D02*
X0175187Y0118612D01*
X0171368Y0108218D02*
X0171058Y0107486D01*
X0160708Y0107486D01*
X0154958Y0101736D01*
X0153820Y0101070D01*
X0108494Y0114950D02*
X0108958Y0116686D01*
X0125994Y0136308D02*
X0127358Y0135086D01*
X0126208Y0136236D01*
X0125994Y0136308D01*
X0145758Y0136236D02*
X0145758Y0136249D01*
X0167608Y0136236D02*
X0168652Y0136820D01*
X0168758Y0136236D01*
X0172470Y0147214D02*
X0172208Y0147736D01*
X0157258Y0147736D01*
X0144608Y0160386D01*
X0143820Y0161070D01*
X0134258Y0160386D02*
X0133820Y0161070D01*
X0134258Y0160386D02*
X0146908Y0147736D01*
X0149208Y0147736D01*
X0149577Y0146643D01*
X0129813Y0146702D02*
X0129658Y0147736D01*
X0120458Y0147736D01*
X0111258Y0156936D01*
X0107808Y0156936D01*
X0104358Y0160386D01*
X0103820Y0161070D01*
X0232008Y0083336D02*
X0232008Y0052286D01*
X0228558Y0048836D01*
X0227825Y0048375D01*
D31*
X0258558Y0035742D02*
X0263907Y0041564D01*
X0270994Y0041564D01*
X0272136Y0041643D01*
X0272136Y0043623D01*
X0275658Y0047736D01*
X0277458Y0047736D01*
X0258558Y0035742D02*
X0258558Y0035136D01*
X0277458Y0064836D02*
X0270902Y0071549D01*
X0265502Y0071549D01*
X0258558Y0078336D01*
D32*
X0278967Y0129478D03*
M02*
