G75*
%MOIN*%
%OFA0B0*%
%FSLAX25Y25*%
%IPPOS*%
%LPD*%
%AMOC8*
5,1,8,0,0,1.08239X$1,22.5*
%
%ADD10R,0.05950X0.05950*%
%ADD11C,0.06000*%
%ADD12C,0.06343*%
%ADD13R,0.08674X0.09461*%
%ADD14R,0.14643X0.14643*%
%ADD15R,0.06737X0.06737*%
%ADD16R,0.09461X0.24422*%
%ADD17R,0.08674X0.13792*%
%ADD18R,0.08674X0.14580*%
%ADD19R,0.06706X0.12611*%
%ADD20R,0.09300X0.05800*%
%ADD21C,0.04800*%
%ADD22C,0.05156*%
%ADD23OC8,0.05156*%
D10*
X0278297Y0090147D03*
X0288297Y0090147D03*
X0305111Y0101364D03*
X0315111Y0101364D03*
X0325111Y0101364D03*
X0335111Y0101364D03*
X0345111Y0101364D03*
X0355111Y0101364D03*
X0355111Y0161364D03*
X0345111Y0161364D03*
X0335111Y0161364D03*
X0325111Y0161364D03*
X0315111Y0161364D03*
X0305111Y0161364D03*
X0153820Y0161070D03*
X0143820Y0161070D03*
X0133820Y0161070D03*
X0123820Y0161070D03*
X0113820Y0161070D03*
X0103820Y0161070D03*
X0103820Y0101070D03*
X0113820Y0101070D03*
X0123820Y0101070D03*
X0133820Y0101070D03*
X0143820Y0101070D03*
X0153820Y0101070D03*
D11*
X0197825Y0080975D02*
X0197825Y0075775D01*
X0207825Y0075775D02*
X0207825Y0080975D01*
X0217825Y0080975D02*
X0217825Y0075775D01*
X0227825Y0075775D02*
X0227825Y0080975D01*
X0237825Y0080975D02*
X0237825Y0075775D01*
X0247825Y0075775D02*
X0247825Y0080975D01*
X0257825Y0080975D02*
X0257825Y0075775D01*
X0267825Y0075775D02*
X0267825Y0080975D01*
X0277825Y0080975D02*
X0277825Y0075775D01*
X0287825Y0075775D02*
X0287825Y0080975D01*
X0297825Y0080975D02*
X0297825Y0075775D01*
X0307825Y0075775D02*
X0307825Y0080975D01*
X0317825Y0080975D02*
X0317825Y0075775D01*
X0327825Y0075775D02*
X0327825Y0080975D01*
X0327825Y0067196D02*
X0327825Y0061996D01*
X0317825Y0061996D02*
X0317825Y0067196D01*
X0307825Y0067196D02*
X0307825Y0061996D01*
X0297825Y0061996D02*
X0297825Y0067196D01*
X0287825Y0067196D02*
X0287825Y0061996D01*
X0277825Y0061996D02*
X0277825Y0067196D01*
X0267825Y0067196D02*
X0267825Y0061996D01*
X0257825Y0061996D02*
X0257825Y0067196D01*
X0247825Y0067196D02*
X0247825Y0061996D01*
X0237825Y0061996D02*
X0237825Y0067196D01*
X0227825Y0067196D02*
X0227825Y0061996D01*
X0217825Y0061996D02*
X0217825Y0067196D01*
X0207825Y0067196D02*
X0207825Y0061996D01*
X0197825Y0061996D02*
X0197825Y0067196D01*
X0197825Y0050975D02*
X0197825Y0045775D01*
X0207825Y0045775D02*
X0207825Y0050975D01*
X0217825Y0050975D02*
X0217825Y0045775D01*
X0227825Y0045775D02*
X0227825Y0050975D01*
X0237825Y0050975D02*
X0237825Y0045775D01*
X0247825Y0045775D02*
X0247825Y0050975D01*
X0257825Y0050975D02*
X0257825Y0045775D01*
X0267825Y0045775D02*
X0267825Y0050975D01*
X0277825Y0050975D02*
X0277825Y0045775D01*
X0287825Y0045775D02*
X0287825Y0050975D01*
X0297825Y0050975D02*
X0297825Y0045775D01*
X0307825Y0045775D02*
X0307825Y0050975D01*
X0317825Y0050975D02*
X0317825Y0045775D01*
X0327825Y0045775D02*
X0327825Y0050975D01*
X0327825Y0037196D02*
X0327825Y0031996D01*
X0317825Y0031996D02*
X0317825Y0037196D01*
X0307825Y0037196D02*
X0307825Y0031996D01*
X0297825Y0031996D02*
X0297825Y0037196D01*
X0287825Y0037196D02*
X0287825Y0031996D01*
X0277825Y0031996D02*
X0277825Y0037196D01*
X0267825Y0037196D02*
X0267825Y0031996D01*
X0257825Y0031996D02*
X0257825Y0037196D01*
X0247825Y0037196D02*
X0247825Y0031996D01*
X0237825Y0031996D02*
X0237825Y0037196D01*
X0227825Y0037196D02*
X0227825Y0031996D01*
X0217825Y0031996D02*
X0217825Y0037196D01*
X0207825Y0037196D02*
X0207825Y0031996D01*
X0197825Y0031996D02*
X0197825Y0037196D01*
D12*
X0355108Y0049438D03*
X0355108Y0059438D03*
X0355108Y0069438D03*
D13*
X0112825Y0058651D03*
X0112825Y0045068D03*
D14*
X0041565Y0027037D03*
X0041565Y0074438D03*
D15*
X0052234Y0055659D03*
X0060167Y0055580D03*
X0060187Y0045797D03*
X0052234Y0045816D03*
D16*
X0112549Y0023415D03*
X0128061Y0023415D03*
X0144045Y0023415D03*
D17*
X0178967Y0038572D03*
D18*
X0178967Y0077942D03*
D19*
X0192037Y0016643D03*
X0220620Y0016446D03*
X0256604Y0017037D03*
X0285187Y0016840D03*
X0322352Y0016801D03*
X0350935Y0016604D03*
D20*
X0308096Y0089301D03*
X0297238Y0089301D03*
X0269435Y0089891D03*
X0258577Y0089891D03*
D21*
X0236467Y0098088D03*
X0227258Y0099336D03*
X0209258Y0104336D03*
X0204258Y0102336D03*
X0238258Y0112336D03*
X0257258Y0114336D03*
X0257258Y0119336D03*
X0239258Y0129336D03*
X0223258Y0123336D03*
X0221258Y0135336D03*
X0225258Y0141336D03*
X0216258Y0145336D03*
X0259258Y0150336D03*
X0289258Y0151336D03*
X0340211Y0137509D03*
X0321258Y0128336D03*
X0333258Y0122336D03*
X0341313Y0122352D03*
X0337258Y0111706D03*
X0326329Y0110328D03*
X0298455Y0107529D03*
X0291258Y0107336D03*
X0323258Y0088336D03*
X0328258Y0087336D03*
X0351258Y0110336D03*
X0233258Y0087336D03*
X0187333Y0078324D03*
X0153258Y0086436D03*
X0104602Y0070546D03*
X0113068Y0066607D03*
X0145258Y0067336D03*
X0153342Y0056735D03*
X0188358Y0044136D03*
X0189989Y0029567D03*
X0234258Y0018036D03*
X0240600Y0018041D03*
X0276388Y0024596D03*
X0302679Y0021639D03*
X0304048Y0014724D03*
X0331959Y0023297D03*
X0357549Y0025344D03*
X0119958Y0028836D03*
X0072667Y0046643D03*
X0053770Y0102942D03*
X0079163Y0111013D03*
X0094085Y0115462D03*
X0088967Y0127391D03*
X0064400Y0128139D03*
X0087825Y0138769D03*
X0099258Y0147336D03*
X0087234Y0150383D03*
X0044358Y0150336D03*
X0163258Y0135336D03*
X0189258Y0123336D03*
X0189258Y0115336D03*
D22*
X0191998Y0146387D03*
X0139085Y0146033D03*
X0285404Y0104576D03*
X0299124Y0128277D03*
X0128415Y0076584D03*
X0137136Y0039911D03*
X0155620Y0019537D03*
X0175226Y0019419D03*
D23*
X0278967Y0129478D03*
M02*
