G75*
%MOIN*%
%OFA0B0*%
%FSLAX25Y25*%
%IPPOS*%
%LPD*%
%AMOC8*
5,1,8,0,0,1.08239X$1,22.5*
%
%ADD10R,0.05950X0.05950*%
%ADD11R,0.08674X0.09461*%
%ADD12R,0.09461X0.08674*%
%ADD13R,0.06706X0.02400*%
%ADD14C,0.06000*%
%ADD15C,0.06343*%
%ADD16R,0.14643X0.14643*%
%ADD17R,0.06737X0.06737*%
%ADD18R,0.09461X0.20485*%
%ADD19R,0.03753X0.04737*%
%ADD20R,0.04146X0.07690*%
%ADD21R,0.03753X0.07690*%
%ADD22C,0.04800*%
%ADD23C,0.05156*%
%ADD24OC8,0.05156*%
D10*
X0278297Y0090147D03*
X0288297Y0090147D03*
X0305111Y0101364D03*
X0315111Y0101364D03*
X0325111Y0101364D03*
X0335111Y0101364D03*
X0345111Y0101364D03*
X0355111Y0101364D03*
X0355111Y0161364D03*
X0345111Y0161364D03*
X0335111Y0161364D03*
X0325111Y0161364D03*
X0315111Y0161364D03*
X0305111Y0161364D03*
X0153820Y0161070D03*
X0143820Y0161070D03*
X0133820Y0161070D03*
X0123820Y0161070D03*
X0113820Y0161070D03*
X0103820Y0161070D03*
X0103820Y0101070D03*
X0113820Y0101070D03*
X0123820Y0101070D03*
X0133820Y0101070D03*
X0143820Y0101070D03*
X0153820Y0101070D03*
D11*
X0198455Y0111407D03*
X0216033Y0110659D03*
X0245561Y0108966D03*
X0267156Y0109930D03*
X0245561Y0122549D03*
X0267156Y0123513D03*
X0266683Y0137352D03*
X0245758Y0137352D03*
X0245758Y0150934D03*
X0266683Y0150934D03*
X0207707Y0154005D03*
X0207707Y0140423D03*
X0198455Y0124989D03*
X0216033Y0124241D03*
X0108809Y0134517D03*
X0108809Y0148100D03*
X0044124Y0142903D03*
X0044124Y0129320D03*
X0042746Y0103730D03*
X0065187Y0094871D03*
X0076604Y0095265D03*
X0042746Y0090147D03*
X0065187Y0081289D03*
X0076604Y0081682D03*
X0080935Y0062194D03*
X0094518Y0062391D03*
X0094518Y0048808D03*
X0080935Y0048612D03*
X0081526Y0036407D03*
X0081526Y0022824D03*
X0040778Y0044871D03*
X0040778Y0058454D03*
X0128770Y0058848D03*
X0145305Y0059832D03*
X0161053Y0064753D03*
X0177392Y0064163D03*
X0177392Y0077745D03*
X0161053Y0078336D03*
X0161250Y0050186D03*
X0177392Y0049596D03*
X0177392Y0036013D03*
X0161250Y0036604D03*
X0145305Y0046249D03*
X0128770Y0045265D03*
D12*
X0184675Y0018297D03*
X0198258Y0018297D03*
X0213219Y0018100D03*
X0226801Y0018100D03*
X0249833Y0017706D03*
X0263415Y0017706D03*
X0279951Y0017509D03*
X0293533Y0017509D03*
X0311644Y0017706D03*
X0325226Y0017706D03*
X0338809Y0017509D03*
X0352392Y0017509D03*
X0355935Y0034832D03*
X0342352Y0034832D03*
X0339203Y0084241D03*
X0352785Y0084241D03*
X0145896Y0086801D03*
X0132313Y0086801D03*
X0120305Y0086604D03*
X0106722Y0086604D03*
X0071486Y0110816D03*
X0057904Y0110816D03*
X0108494Y0114950D03*
X0122077Y0114950D03*
X0052392Y0157470D03*
X0038809Y0157470D03*
D13*
X0055274Y0141417D03*
X0055274Y0138917D03*
X0055274Y0136417D03*
X0055274Y0133917D03*
X0055274Y0131417D03*
X0055274Y0128917D03*
X0055274Y0126417D03*
X0055274Y0123917D03*
X0079037Y0123917D03*
X0079037Y0126417D03*
X0079037Y0128917D03*
X0079037Y0131417D03*
X0079037Y0133917D03*
X0079037Y0136417D03*
X0079037Y0138917D03*
X0079037Y0141417D03*
D14*
X0197825Y0080975D02*
X0197825Y0075775D01*
X0207825Y0075775D02*
X0207825Y0080975D01*
X0217825Y0080975D02*
X0217825Y0075775D01*
X0227825Y0075775D02*
X0227825Y0080975D01*
X0237825Y0080975D02*
X0237825Y0075775D01*
X0247825Y0075775D02*
X0247825Y0080975D01*
X0257825Y0080975D02*
X0257825Y0075775D01*
X0267825Y0075775D02*
X0267825Y0080975D01*
X0277825Y0080975D02*
X0277825Y0075775D01*
X0287825Y0075775D02*
X0287825Y0080975D01*
X0297825Y0080975D02*
X0297825Y0075775D01*
X0307825Y0075775D02*
X0307825Y0080975D01*
X0317825Y0080975D02*
X0317825Y0075775D01*
X0327825Y0075775D02*
X0327825Y0080975D01*
X0327825Y0067196D02*
X0327825Y0061996D01*
X0317825Y0061996D02*
X0317825Y0067196D01*
X0307825Y0067196D02*
X0307825Y0061996D01*
X0297825Y0061996D02*
X0297825Y0067196D01*
X0287825Y0067196D02*
X0287825Y0061996D01*
X0277825Y0061996D02*
X0277825Y0067196D01*
X0267825Y0067196D02*
X0267825Y0061996D01*
X0257825Y0061996D02*
X0257825Y0067196D01*
X0247825Y0067196D02*
X0247825Y0061996D01*
X0237825Y0061996D02*
X0237825Y0067196D01*
X0227825Y0067196D02*
X0227825Y0061996D01*
X0217825Y0061996D02*
X0217825Y0067196D01*
X0207825Y0067196D02*
X0207825Y0061996D01*
X0197825Y0061996D02*
X0197825Y0067196D01*
X0197825Y0050975D02*
X0197825Y0045775D01*
X0207825Y0045775D02*
X0207825Y0050975D01*
X0217825Y0050975D02*
X0217825Y0045775D01*
X0227825Y0045775D02*
X0227825Y0050975D01*
X0237825Y0050975D02*
X0237825Y0045775D01*
X0247825Y0045775D02*
X0247825Y0050975D01*
X0257825Y0050975D02*
X0257825Y0045775D01*
X0267825Y0045775D02*
X0267825Y0050975D01*
X0277825Y0050975D02*
X0277825Y0045775D01*
X0287825Y0045775D02*
X0287825Y0050975D01*
X0297825Y0050975D02*
X0297825Y0045775D01*
X0307825Y0045775D02*
X0307825Y0050975D01*
X0317825Y0050975D02*
X0317825Y0045775D01*
X0327825Y0045775D02*
X0327825Y0050975D01*
X0327825Y0037196D02*
X0327825Y0031996D01*
X0317825Y0031996D02*
X0317825Y0037196D01*
X0307825Y0037196D02*
X0307825Y0031996D01*
X0297825Y0031996D02*
X0297825Y0037196D01*
X0287825Y0037196D02*
X0287825Y0031996D01*
X0277825Y0031996D02*
X0277825Y0037196D01*
X0267825Y0037196D02*
X0267825Y0031996D01*
X0257825Y0031996D02*
X0257825Y0037196D01*
X0247825Y0037196D02*
X0247825Y0031996D01*
X0237825Y0031996D02*
X0237825Y0037196D01*
X0227825Y0037196D02*
X0227825Y0031996D01*
X0217825Y0031996D02*
X0217825Y0037196D01*
X0207825Y0037196D02*
X0207825Y0031996D01*
X0197825Y0031996D02*
X0197825Y0037196D01*
D15*
X0355108Y0049438D03*
X0355108Y0059438D03*
X0355108Y0069438D03*
D16*
X0041565Y0027037D03*
X0041565Y0074438D03*
D17*
X0052234Y0055659D03*
X0060167Y0055580D03*
X0060187Y0045797D03*
X0052234Y0045816D03*
D18*
X0112549Y0021446D03*
X0127904Y0021446D03*
X0144045Y0021446D03*
D19*
X0072274Y0149989D03*
X0067549Y0149989D03*
X0069911Y0156682D03*
D20*
X0125994Y0136308D03*
X0133514Y0136269D03*
X0145758Y0136249D03*
X0153278Y0136210D03*
X0168652Y0136820D03*
X0176171Y0136781D03*
X0175187Y0118612D03*
X0167667Y0118651D03*
X0285719Y0129852D03*
X0293238Y0129812D03*
X0306093Y0129360D03*
X0313612Y0129320D03*
X0326211Y0130029D03*
X0333730Y0129989D03*
X0346919Y0137962D03*
X0354439Y0137923D03*
D21*
X0330030Y0140423D03*
X0309911Y0139753D03*
X0289537Y0140245D03*
X0350620Y0127529D03*
X0172470Y0147214D03*
X0149577Y0146643D03*
X0129813Y0146702D03*
X0171368Y0108218D03*
D22*
X0189258Y0115336D03*
X0189258Y0123336D03*
X0163258Y0135336D03*
X0216258Y0145336D03*
X0225258Y0141336D03*
X0221258Y0135336D03*
X0239258Y0129336D03*
X0223258Y0123336D03*
X0238258Y0112336D03*
X0257258Y0114336D03*
X0257258Y0119336D03*
X0291258Y0107336D03*
X0298455Y0107529D03*
X0326329Y0110328D03*
X0337258Y0111706D03*
X0351258Y0110336D03*
X0341313Y0122352D03*
X0333258Y0122336D03*
X0321258Y0128336D03*
X0340211Y0137509D03*
X0289258Y0151336D03*
X0259258Y0150336D03*
X0209258Y0104336D03*
X0204258Y0102336D03*
X0227258Y0099336D03*
X0236467Y0098088D03*
X0233258Y0087336D03*
X0187333Y0078324D03*
X0153258Y0086436D03*
X0104602Y0070546D03*
X0113068Y0066607D03*
X0145258Y0067336D03*
X0153342Y0056735D03*
X0188358Y0044136D03*
X0189989Y0029567D03*
X0234258Y0018036D03*
X0240600Y0018041D03*
X0276388Y0024596D03*
X0302679Y0021639D03*
X0304048Y0014724D03*
X0331959Y0023297D03*
X0357549Y0025344D03*
X0328258Y0087336D03*
X0323258Y0088336D03*
X0119958Y0028836D03*
X0072667Y0046643D03*
X0053770Y0102942D03*
X0079163Y0111013D03*
X0094085Y0115462D03*
X0088967Y0127391D03*
X0064400Y0128139D03*
X0087825Y0138769D03*
X0099258Y0147336D03*
X0087234Y0150383D03*
X0044358Y0150336D03*
D23*
X0139085Y0146033D03*
X0191998Y0146387D03*
X0299124Y0128277D03*
X0285404Y0104576D03*
X0128415Y0076584D03*
X0137136Y0039911D03*
X0155620Y0019537D03*
X0175226Y0019419D03*
D24*
X0278967Y0129478D03*
M02*
